<svg width="68" height="52" viewBox="0 0 68 52" fill="none" xmlns="http://www.w3.org/2000/svg" xmlns:xlink="http://www.w3.org/1999/xlink">
<path fill-rule="evenodd" clip-rule="evenodd" d="M43.0801 0L28.5701 12.9H11V26.3001C11.9693 26.1033 12.9726 26 14 26C21.8708 26 28.3256 32.062 28.9504 39.7718L43.0801 50.24V0Z" fill="currentColor"/>
<path fill-rule="evenodd" clip-rule="evenodd" d="M43.0801 0L28.5701 12.9H11V26.3001C11.9693 26.1033 12.9726 26 14 26C21.8708 26 28.3256 32.062 28.9504 39.7718L43.0801 50.24V0Z" fill="url(#pattern0_2955_23886)" style="mix-blend-mode:screen"/>
<path d="M7.63605 47.364C9.2647 48.9927 11.5147 50 14 50C18.9706 50 23 45.9706 23 41C23 36.0294 18.9706 32 14 32C11.5147 32 9.2647 33.0074 7.63605 34.6361C6.80705 35.4651 5 37.5 5 37.5" stroke="currentColor" stroke-width="3" stroke-linecap="round" stroke-linejoin="round"/>
<path d="M7.63605 47.364C9.2647 48.9927 11.5147 50 14 50C18.9706 50 23 45.9706 23 41C23 36.0294 18.9706 32 14 32C11.5147 32 9.2647 33.0074 7.63605 34.6361C6.80705 35.4651 5 37.5 5 37.5" stroke="url(#pattern1_2955_23886)" stroke-width="3" stroke-linecap="round" stroke-linejoin="round" style="mix-blend-mode:screen"/>
<path d="M5 33.5L5 37.5H9" stroke="currentColor" stroke-width="3" stroke-linecap="round" stroke-linejoin="round"/>
<path d="M5 33.5L5 37.5H9" stroke="url(#pattern2_2955_23886)" stroke-width="3" stroke-linecap="round" stroke-linejoin="round" style="mix-blend-mode:screen"/>
<path d="M65 6L49.5 15.5" stroke="currentColor" stroke-width="3" stroke-linecap="round"/>
<path d="M65 6L49.5 15.5" stroke="url(#pattern3_2955_23886)" stroke-width="3" stroke-linecap="round" style="mix-blend-mode:screen"/>
<path d="M65 43.5L49.5 34" stroke="currentColor" stroke-width="3" stroke-linecap="round"/>
<path d="M65 43.5L49.5 34" stroke="url(#pattern4_2955_23886)" stroke-width="3" stroke-linecap="round" style="mix-blend-mode:screen"/>
<path d="M66.5 24.5H49.5" stroke="currentColor" stroke-width="3" stroke-linecap="round"/>
<path d="M66.5 24.5H49.5" stroke="url(#pattern5_2955_23886)" stroke-width="3" stroke-linecap="round" style="mix-blend-mode:screen"/>
<defs>
<pattern id="pattern0_2955_23886" patternContentUnits="objectBoundingBox" width="15.586" height="9.95223">
<use xlink:href="#image0_2955_23886" transform="scale(0.015586 0.00995223)"/>
</pattern>
<pattern id="pattern1_2955_23886" patternContentUnits="objectBoundingBox" width="27.7778" height="27.7778">
<use xlink:href="#image0_2955_23886" transform="scale(0.0277778)"/>
</pattern>
<pattern id="pattern2_2955_23886" patternContentUnits="objectBoundingBox" width="125" height="125">
<use xlink:href="#image0_2955_23886" transform="scale(0.125)"/>
</pattern>
<pattern id="pattern3_2955_23886" patternContentUnits="objectBoundingBox" width="32.2581" height="52.6316">
<use xlink:href="#image0_2955_23886" transform="scale(0.0322581 0.0526316)"/>
</pattern>
<pattern id="pattern4_2955_23886" patternContentUnits="objectBoundingBox" width="32.2581" height="52.6316">
<use xlink:href="#image0_2955_23886" transform="scale(0.0322581 0.0526316)"/>
</pattern>
<pattern id="pattern5_2955_23886" patternContentUnits="objectBoundingBox" width="0.034">
<use xlink:href="#image0_2955_23886" transform="matrix(3.4e-05 0 0 0 0 0)"/>
</pattern>
<image id="image0_2955_23886" width="1000" height="1000" xlink:href="/src/assets/paperTexture.jpg"/>
</defs>
</svg>
