<svg width="50" height="50" viewBox="0 0 50 50" fill="none" xmlns="http://www.w3.org/2000/svg">
<path d="M30.5201 14.34C30.8601 15.34 34.87 16.94 39.26 16.58C43.65 16.22 45.1901 14.09 46.6501 12.5" stroke="#EDEDEE" stroke-width="2" stroke-linecap="round" stroke-linejoin="round"/>
<path d="M44.7899 14.67C44.7299 16.31 46.1699 18.39 47.7899 18.52" stroke="#EDEDEE" stroke-width="2" stroke-linecap="round" stroke-linejoin="round"/>
<path d="M41.56 16.48C41.6184 17.4216 41.9369 18.3285 42.48 19.1C42.6857 19.5072 42.9759 19.8659 43.3311 20.1521C43.6863 20.4383 44.0983 20.6455 44.5399 20.7599" stroke="#EDEDEE" stroke-width="2" stroke-linecap="round" stroke-linejoin="round"/>
<path d="M37.1699 16.83C37.0457 18.6533 37.6499 20.4516 38.85 21.83" stroke="#EDEDEE" stroke-width="2" stroke-linecap="round" stroke-linejoin="round"/>
<path d="M33.1501 16.46C32.9002 17.2432 32.8155 18.0698 32.9016 18.8875C32.9876 19.7051 33.2426 20.4959 33.6501 21.21" stroke="#EDEDEE" stroke-width="2" stroke-linecap="round" stroke-linejoin="round"/>
<path d="M2.47 12.77C3.91719 14.5112 5.686 15.9575 7.67996 17.03C10.0875 18.1086 12.8025 18.286 15.33 17.53C17.7277 16.8186 19.8319 15.3527 21.33 13.35" stroke="#EDEDEE" stroke-width="2" stroke-linecap="round" stroke-linejoin="round"/>
<path d="M19.13 15.79C19.2868 16.55 19.6662 17.2463 20.22 17.79C20.8248 18.1403 21.5247 18.2907 22.22 18.22" stroke="#EDEDEE" stroke-width="2" stroke-linecap="round" stroke-linejoin="round"/>
<path d="M15.61 17.6L15.94 18.3C16.1317 18.7468 16.3804 19.167 16.68 19.55C16.9978 19.9549 17.4534 20.2289 17.96 20.32" stroke="#EDEDEE" stroke-width="2" stroke-linecap="round" stroke-linejoin="round"/>
<path d="M11.59 18.04C11.5234 18.6971 11.5998 19.3608 11.8139 19.9857C12.0279 20.6105 12.3745 21.1817 12.83 21.66" stroke="#EDEDEE" stroke-width="2" stroke-linecap="round" stroke-linejoin="round"/>
<path d="M8.63006 17.4C8.41154 17.5422 8.22674 17.7304 8.08856 17.9515C7.95037 18.1726 7.86209 18.4212 7.83001 18.68C7.70001 19.5373 7.67991 20.4076 7.77007 21.27" stroke="#EDEDEE" stroke-width="2" stroke-linecap="round" stroke-linejoin="round"/>
<path d="M6.13002 16.24C5.31084 16.5493 4.61576 17.1189 4.15151 17.8613C3.68726 18.6038 3.47942 19.478 3.55996 20.35" stroke="#EDEDEE" stroke-width="2" stroke-linecap="round" stroke-linejoin="round"/>
<path d="M19.5301 33.38C19.5301 33.38 22.16 37.38 25.35 37.28C28.54 37.18 31.0201 33.09 31.0201 33.09" stroke="#EDEDEE" stroke-width="2" stroke-linecap="round" stroke-linejoin="round"/>
</svg>
