<svg width="50" height="50" viewBox="0 0 50 50" fill="none" xmlns="http://www.w3.org/2000/svg">
<path d="M6.39001 31.5C6.39001 31.5 8.61 40.4 20.63 40.85C32.65 41.3 41.11 31.95 41.11 31.95" stroke="#EDEDEE" stroke-width="2" stroke-linecap="round" stroke-linejoin="round"/>
<path d="M47.29 18.0599C45.8415 16.3161 44.0688 14.8695 42.0699 13.7999C39.6624 12.7213 36.9475 12.5439 34.42 13.2999C32.0214 14.0093 29.9166 15.4756 28.42 17.4799" stroke="#EDEDEE" stroke-width="2" stroke-linecap="round" stroke-linejoin="round"/>
<path d="M30.66 15.04C30.5032 14.2799 30.1237 13.5837 29.5699 13.04C28.9649 12.6904 28.2652 12.5399 27.5699 12.61" stroke="#EDEDEE" stroke-width="2" stroke-linecap="round" stroke-linejoin="round"/>
<path d="M34.1801 13.2299L33.84 12.5299C33.6556 12.0815 33.41 11.6608 33.11 11.2799C32.7856 10.8825 32.3331 10.6103 31.83 10.5099" stroke="#EDEDEE" stroke-width="2" stroke-linecap="round" stroke-linejoin="round"/>
<path d="M38.1899 12.76C38.259 12.105 38.1848 11.4429 37.9724 10.8195C37.76 10.1962 37.4145 9.62647 36.96 9.14996" stroke="#EDEDEE" stroke-width="2" stroke-linecap="round" stroke-linejoin="round"/>
<path d="M41.16 13.4399C41.3766 13.2932 41.5598 13.1025 41.6976 12.8803C41.8355 12.658 41.9248 12.4091 41.96 12.1499C42.0801 11.2918 42.1003 10.4227 42.02 9.55994" stroke="#EDEDEE" stroke-width="2" stroke-linecap="round" stroke-linejoin="round"/>
<path d="M43.66 14.59C44.4774 14.2789 45.1702 13.7086 45.6326 12.9663C46.0949 12.2241 46.3012 11.3507 46.22 10.48" stroke="#EDEDEE" stroke-width="2" stroke-linecap="round" stroke-linejoin="round"/>
<path d="M19.26 16.49C18.93 15.49 14.92 13.89 10.53 14.25C6.14003 14.61 4.6 16.74 3.13 18.34" stroke="#EDEDEE" stroke-width="2" stroke-linecap="round" stroke-linejoin="round"/>
<path d="M5 16.16C5.06 14.52 3.62 12.44 2 12.31" stroke="#EDEDEE" stroke-width="2" stroke-linecap="round" stroke-linejoin="round"/>
<path d="M8.21997 14.33C8.1687 13.3838 7.84972 12.4718 7.30005 11.7C7.10084 11.2991 6.82002 10.9444 6.47559 10.6585C6.13115 10.3726 5.73073 10.1619 5.30005 10.04" stroke="#EDEDEE" stroke-width="2" stroke-linecap="round" stroke-linejoin="round"/>
<path d="M12.62 14C12.7443 12.1766 12.14 10.3784 10.9399 9" stroke="#EDEDEE" stroke-width="2" stroke-linecap="round" stroke-linejoin="round"/>
<path d="M16.64 14.33C16.8863 13.5462 16.9691 12.7202 16.8831 11.9031C16.797 11.0861 16.5441 10.2953 16.14 9.58002" stroke="#EDEDEE" stroke-width="2" stroke-linecap="round" stroke-linejoin="round"/>
<path d="M8.26006 14.93C7.85093 15.2464 7.53052 15.6632 7.33 16.14C6.8372 17.1558 6.62323 18.2843 6.71001 19.41C6.71898 19.914 6.86791 20.4057 7.14006 20.83C7.45128 21.2238 7.86713 21.5218 8.34001 21.69C9.27074 22.0688 10.2864 22.1897 11.2801 22.04C12.2808 21.8534 13.1974 21.3566 13.9001 20.62C14.1405 20.428 14.3556 20.2062 14.5401 19.96C14.8209 19.4252 14.9456 18.8223 14.9001 18.22C14.9443 16.9366 14.5254 15.6801 13.72 14.68C13.5559 14.4925 13.3456 14.3512 13.11 14.27C12.5709 14.0346 11.9883 13.9153 11.4001 13.92C10.2728 13.9155 9.17329 14.2692 8.26006 14.93Z" fill="#EDEDEE"/>
<path d="M12.79 15.89L12.64 15.74C12.1663 15.3819 11.5835 15.1983 10.99 15.22H10.52C10.38 15.22 10.26 15.22 10.12 15.22C9.59016 15.4531 9.12888 15.818 8.78004 16.28C8.3244 16.9685 8.10342 17.7857 8.15003 18.61C8.15196 18.8257 8.17876 19.0404 8.22999 19.25C8.31803 19.472 8.44693 19.6755 8.60999 19.85C8.8958 20.2633 9.31854 20.5623 9.80347 20.6941C10.2884 20.8258 10.8043 20.7819 11.26 20.57C11.852 20.36 12.3768 19.9949 12.7795 19.513C13.1823 19.031 13.4484 18.4498 13.5501 17.83C13.5537 17.11 13.2817 16.4159 12.79 15.89Z" fill="#6B6C6F"/>
<path d="M35 14.01C34.5934 14.3289 34.2736 14.745 34.07 15.22C33.5873 16.2356 33.3739 17.3581 33.45 18.48C33.4657 18.9875 33.6178 19.4814 33.8901 19.91C34.2013 20.3037 34.6171 20.6018 35.09 20.77C36.425 21.3052 37.915 21.3052 39.25 20.77C39.7561 20.5727 40.2093 20.2604 40.5738 19.8577C40.9383 19.4551 41.204 18.9731 41.35 18.45C41.6076 17.852 41.7042 17.1969 41.63 16.55C41.5119 15.5237 41.1102 14.5507 40.47 13.74C40.3059 13.5525 40.0956 13.4112 39.86 13.33C39.3174 13.0946 38.7315 12.9754 38.1401 12.98C37.011 12.984 35.9121 13.3445 35 14.01Z" fill="#EDEDEE"/>
<path d="M39.72 15.13L39.57 14.98C39.0945 14.6262 38.5122 14.4462 37.9201 14.47H37.45C37.31 14.47 37.1901 14.47 37.0501 14.47C36.5223 14.7065 36.0616 15.0708 35.71 15.53C35.2557 16.219 35.0348 17.0359 35.08 17.86C35.0619 18.0868 35.0927 18.3149 35.1703 18.5289C35.248 18.7428 35.3707 18.9375 35.5301 19.1C35.8189 19.5125 36.2434 19.8106 36.7295 19.9422C37.2157 20.0738 37.7325 20.0305 38.19 19.82C38.781 19.613 39.3051 19.25 39.7065 18.7693C40.1079 18.2887 40.3717 17.7084 40.47 17.09C40.4846 16.3639 40.2156 15.6608 39.72 15.13Z" fill="#6B6C6F"/>
</svg>
