<svg width="26" height="41" fill="none" xmlns="http://www.w3.org/2000/svg" xmlns:xlink="http://www.w3.org/1999/xlink">
<path d="M24.9764 19.0645H21.6956C21.6956 7.85412 19.2777 3.28075 13.356 3.28075C11.1185 3.28075 4.30764 3.28075 4.30764 19.0645H1.02689C1.02689 13.6643 1.74537 9.55027 3.22171 6.44012C5.23281 2.22763 8.73666 0 13.356 0C18.0343 0 21.3348 2.20795 23.1654 6.56151C24.7697 10.3705 24.9764 15.2424 24.9764 19.0645Z" fill="#6B6C6F"/>
<path d="M24.9764 19.0645H21.6956C21.6956 7.85412 19.2777 3.28075 13.356 3.28075C11.1185 3.28075 4.30764 3.28075 4.30764 19.0645H1.02689C1.02689 13.6643 1.74537 9.55027 3.22171 6.44012C5.23281 2.22763 8.73666 0 13.356 0C18.0343 0 21.3348 2.20795 23.1654 6.56151C24.7697 10.3705 24.9764 15.2424 24.9764 19.0645Z" fill="url(#pattern0_3142_23775)" style="mix-blend-mode:screen"/>
<path d="M13.0016 18.5134H1.25754e-05C1.25754e-05 25.0158 -0.0820063 40.104 13.0016 40.104C26.0853 40.104 26 25.0125 26 18.5134H13.0016Z" fill="#6B6C6F"/>
<path d="M13.0016 18.5134H1.25754e-05C1.25754e-05 25.0158 -0.0820063 40.104 13.0016 40.104C26.0853 40.104 26 25.0125 26 18.5134H13.0016Z" fill="url(#pattern1_3142_23775)" style="mix-blend-mode:screen"/>
<path d="M15.6754 32.5615L14.2713 27.7289C14.7591 27.4302 15.1345 26.9787 15.3393 26.4445C15.544 25.9104 15.5665 25.3236 15.4033 24.7754C15.24 24.2271 14.9003 23.7482 14.4367 23.413C13.9732 23.0778 13.4119 22.9051 12.8402 22.9219C12.2684 22.9386 11.7182 23.1438 11.275 23.5055C10.8319 23.8672 10.5207 24.3652 10.3898 24.9221C10.2589 25.4789 10.3157 26.0634 10.5513 26.5847C10.7869 27.1059 11.1881 27.5347 11.6926 27.8044L10.3803 32.5615H15.6754Z" fill="#373737"/>
<path d="M15.6754 32.5615L14.2713 27.7289C14.7591 27.4302 15.1345 26.9787 15.3393 26.4445C15.544 25.9104 15.5665 25.3236 15.4033 24.7754C15.24 24.2271 14.9003 23.7482 14.4367 23.413C13.9732 23.0778 13.4119 22.9051 12.8402 22.9219C12.2684 22.9386 11.7182 23.1438 11.275 23.5055C10.8319 23.8672 10.5207 24.3652 10.3898 24.9221C10.2589 25.4789 10.3157 26.0634 10.5513 26.5847C10.7869 27.1059 11.1881 27.5347 11.6926 27.8044L10.3803 32.5615H15.6754Z" fill="url(#pattern2_3142_23775)" style="mix-blend-mode:screen"/>
<defs>
<pattern id="pattern0_3142_23775" patternContentUnits="objectBoundingBox" width="20.8773" height="26.2268">
<use xlink:href="#image0_3142_23775" transform="scale(0.0208773 0.0262268)"/>
</pattern>
<pattern id="pattern1_3142_23775" patternContentUnits="objectBoundingBox" width="19.2308" height="23.1582">
<use xlink:href="#image0_3142_23775" transform="scale(0.0192308 0.0231582)"/>
</pattern>
<pattern id="pattern2_3142_23775" patternContentUnits="objectBoundingBox" width="93.3804" height="51.8633">
<use xlink:href="#image0_3142_23775" transform="scale(0.0933804 0.0518633)"/>
</pattern>
<image id="image0_3142_23775" width="1000" height="1000" xlink:href="/src/assets/paperTexture.jpg"/>
</defs>
</svg>
