<svg width="90" height="88" xmlns="http://www.w3.org/2000/svg" xmlns:xlink="http://www.w3.org/1999/xlink">
<path d="M61.85 26.91C59.8532 22.2352 57.5791 17.6838 55.0399 13.28C51.7199 7.87 44.3799 0 44.3799 0C44.3799 0 37.56 8.91001 34.59 13.63C31.62 18.35 27.25 27.26 27.25 27.26C27.25 27.26 19.74 29.18 11.7 32.15C3.65995 35.12 0 37.92 0 37.92C0 37.92 5.05988 44.38 8.37988 48.58C11.2823 51.9587 14.4381 55.1112 17.8199 58.01C16.19 62.2306 15.0753 66.6324 14.5 71.12C13.63 78.28 13.2799 87.89 13.2799 87.89C13.2799 87.89 24.8099 86.15 30.5699 83.53C36.3299 80.91 45.5699 74.09 45.5699 74.09C51.2621 77.2201 57.1589 79.963 63.22 82.3C68.6719 84.1239 74.2884 85.4133 79.99 86.15C79.2859 80.9001 78.2369 75.7021 76.85 70.59C75.5984 66.2044 73.962 61.9378 71.96 57.84C71.96 57.84 76.85 52.77 82.09 46.48C85.11 42.9333 87.6363 38.9942 89.6 34.77C85.3987 32.2487 80.8738 30.3109 76.1499 29.01C71.4378 27.9788 66.6596 27.2771 61.85 26.91Z" fill="currentColor"/>
<path d="M61.85 26.91C59.8532 22.2352 57.5791 17.6838 55.0399 13.28C51.7199 7.87 44.3799 0 44.3799 0C44.3799 0 37.56 8.91001 34.59 13.63C31.62 18.35 27.25 27.26 27.25 27.26C27.25 27.26 19.74 29.18 11.7 32.15C3.65995 35.12 0 37.92 0 37.92C0 37.92 5.05988 44.38 8.37988 48.58C11.2823 51.9587 14.4381 55.1112 17.8199 58.01C16.19 62.2306 15.0753 66.6324 14.5 71.12C13.63 78.28 13.2799 87.89 13.2799 87.89C13.2799 87.89 24.8099 86.15 30.5699 83.53C36.3299 80.91 45.5699 74.09 45.5699 74.09C51.2621 77.2201 57.1589 79.963 63.22 82.3C68.6719 84.1239 74.2884 85.4133 79.99 86.15C79.2859 80.9001 78.2369 75.7021 76.85 70.59C75.5984 66.2044 73.962 61.9378 71.96 57.84C71.96 57.84 76.85 52.77 82.09 46.48C85.11 42.9333 87.6363 38.9942 89.6 34.77C85.3987 32.2487 80.8738 30.3109 76.1499 29.01C71.4378 27.9788 66.6596 27.2771 61.85 26.91Z" fill="url(#pattern0_11_514)" style="mix-blend-mode:screen"/>
<defs>
<pattern id="pattern0_11_514" patternContentUnits="objectBoundingBox" width="5.58036" height="5.68893">
<use xlink:href="#image0_11_514" transform="scale(0.00558036 0.00568893)"/>
</pattern>
<image id="image0_11_514" width="1000" height="1000" xlink:href="/src/assets/paperTexture.jpg"/>
</defs>
</svg>
