<svg width="301" height="208" viewBox="0 0 301 208" fill="none" xmlns="http://www.w3.org/2000/svg">
<g opacity="0.2">
<mask id="path-1-outside-1_1916_22584" maskUnits="userSpaceOnUse" x="2" y="0" width="299" height="208" fill="black">
<rect fill="white" x="2" width="299" height="208"/>
<path d="M105.189 131.017C105.189 131.017 96.1621 144.793 83.6016 151.438C72.0054 157.556 56.0897 160.862 55.5711 160.652C55.2467 156.797 55.8785 152.923 57.4106 149.372C59.2902 145.5 61.52 141.808 64.0719 138.343C64.0719 138.343 47.7677 134.898 37.4275 131.908C27.8491 129.145 14 120.677 14 120.677C14 120.677 25.4826 108.943 38.116 103.886C50.7495 98.8297 58.0995 97.4522 58.0995 97.4522C58.0995 97.4522 50.2875 91.026 46.3897 86.4313C42.4919 81.8365 37.2004 72.8982 37.2004 72.8982C37.2004 72.8982 48.6832 70.5805 56.495 71.2775C64.3069 71.9744 70.7328 72.6552 70.7328 72.6552C69.2437 69.5327 68.2384 66.2019 67.751 62.777C67.192 59.2877 67.192 55.7317 67.751 52.2424C76.4859 54.733 84.6691 58.8576 91.867 64.3977C103.35 73.1253 105.424 78.1738 105.424 78.1738L105.189 131.017Z"/>
<path d="M207.303 166.105C241.767 165.919 265.194 117.881 265.194 103.748C265.194 89.6157 241.767 41.5697 207.303 41.3509L101.146 41.3509L101.146 166.089L207.303 166.089V166.105Z"/>
<path d="M163.905 195.667L180.112 165.473L101.548 165.473L85.3405 195.667L163.905 195.667Z"/>
<path d="M163.165 12L179.373 42.1858L100.809 42.1858L84.6014 12L163.165 12Z"/>
<path d="M288.16 105.807V101.674L249.571 101.674V105.807L288.16 105.807Z"/>
</mask>
<path d="M105.189 131.017C105.189 131.017 96.1621 144.793 83.6016 151.438C72.0054 157.556 56.0897 160.862 55.5711 160.652C55.2467 156.797 55.8785 152.923 57.4106 149.372C59.2902 145.5 61.52 141.808 64.0719 138.343C64.0719 138.343 47.7677 134.898 37.4275 131.908C27.8491 129.145 14 120.677 14 120.677C14 120.677 25.4826 108.943 38.116 103.886C50.7495 98.8297 58.0995 97.4522 58.0995 97.4522C58.0995 97.4522 50.2875 91.026 46.3897 86.4313C42.4919 81.8365 37.2004 72.8982 37.2004 72.8982C37.2004 72.8982 48.6832 70.5805 56.495 71.2775C64.3069 71.9744 70.7328 72.6552 70.7328 72.6552C69.2437 69.5327 68.2384 66.2019 67.751 62.777C67.192 59.2877 67.192 55.7317 67.751 52.2424C76.4859 54.733 84.6691 58.8576 91.867 64.3977C103.35 73.1253 105.424 78.1738 105.424 78.1738L105.189 131.017Z" stroke="#EDEDEE" stroke-width="24" stroke-linecap="round" stroke-linejoin="round" stroke-dasharray="12 24" mask="url(#path-1-outside-1_1916_22584)"/>
<path d="M207.303 166.105C241.767 165.919 265.194 117.881 265.194 103.748C265.194 89.6157 241.767 41.5697 207.303 41.3509L101.146 41.3509L101.146 166.089L207.303 166.089V166.105Z" stroke="#EDEDEE" stroke-width="24" stroke-linecap="round" stroke-linejoin="round" stroke-dasharray="12 24" mask="url(#path-1-outside-1_1916_22584)"/>
<path d="M163.905 195.667L180.112 165.473L101.548 165.473L85.3405 195.667L163.905 195.667Z" stroke="#EDEDEE" stroke-width="24" stroke-linecap="round" stroke-linejoin="round" stroke-dasharray="12 24" mask="url(#path-1-outside-1_1916_22584)"/>
<path d="M163.165 12L179.373 42.1858L100.809 42.1858L84.6014 12L163.165 12Z" stroke="#EDEDEE" stroke-width="24" stroke-linecap="round" stroke-linejoin="round" stroke-dasharray="12 24" mask="url(#path-1-outside-1_1916_22584)"/>
<path d="M288.16 105.807V101.674L249.571 101.674V105.807L288.16 105.807Z" stroke="#EDEDEE" stroke-width="24" stroke-linecap="round" stroke-linejoin="round" stroke-dasharray="12 24" mask="url(#path-1-outside-1_1916_22584)"/>
</g>
</svg>
