<svg width="371" height="217" viewBox="0 0 371 217" fill="none" xmlns="http://www.w3.org/2000/svg">
<g opacity="0.2">
<mask id="path-1-outside-1_4479_32364" maskUnits="userSpaceOnUse" x="0" y="1" width="371" height="215" fill="black">
<rect fill="white" y="1" width="371" height="215"/>
<path d="M151.848 16.6049L176.144 51.1193C187.849 52.6156 201.379 54.6194 216.948 57.2864C299.131 71.3636 359 108.296 359 108.296C359 108.296 299.131 145.228 216.948 159.306C200.869 162.06 186.964 164.107 174.999 165.618L175.1 165.614L151.524 200.474L86.0626 203.61L109.123 168.547C107.844 166.511 102.502 157.569 99.527 145.66C95.758 150.279 89.3526 157.095 81.6016 161.195C70.0054 167.314 54.0897 170.62 53.5711 170.409C53.2467 166.555 53.8785 162.681 55.4106 159.129C57.2902 155.257 59.52 151.566 62.0719 148.1C62.0719 148.1 45.7677 144.656 35.4275 141.666C25.8491 138.902 12 130.434 12 130.434C12 130.434 23.4826 118.701 36.116 113.644C48.7495 108.587 56.0995 107.21 56.0995 107.21C56.0995 107.21 48.2875 100.784 44.3897 96.1889C40.4919 91.5941 35.2004 82.6558 35.2004 82.6558C35.2004 82.6558 46.6832 80.3381 54.495 81.035C62.3069 81.732 68.7328 82.4128 68.7328 82.4128C67.2437 79.2903 66.2384 75.9595 65.751 72.5346C65.192 69.0453 65.192 65.4893 65.751 62C74.4859 64.4906 82.6691 68.6152 89.867 74.1553C93.1867 76.6785 95.72 78.8942 97.6443 80.7693C97.9678 78.6346 98.3326 76.5032 98.7436 74.4278C101.439 60.8156 107.704 50.3044 109.117 48.0545L86.0626 13L151.848 16.6049Z"/>
</mask>
<path d="M151.848 16.6049L176.144 51.1193C187.849 52.6156 201.379 54.6194 216.948 57.2864C299.131 71.3636 359 108.296 359 108.296C359 108.296 299.131 145.228 216.948 159.306C200.869 162.06 186.964 164.107 174.999 165.618L175.1 165.614L151.524 200.474L86.0626 203.61L109.123 168.547C107.844 166.511 102.502 157.569 99.527 145.66C95.758 150.279 89.3526 157.095 81.6016 161.195C70.0054 167.314 54.0897 170.62 53.5711 170.409C53.2467 166.555 53.8785 162.681 55.4106 159.129C57.2902 155.257 59.52 151.566 62.0719 148.1C62.0719 148.1 45.7677 144.656 35.4275 141.666C25.8491 138.902 12 130.434 12 130.434C12 130.434 23.4826 118.701 36.116 113.644C48.7495 108.587 56.0995 107.21 56.0995 107.21C56.0995 107.21 48.2875 100.784 44.3897 96.1889C40.4919 91.5941 35.2004 82.6558 35.2004 82.6558C35.2004 82.6558 46.6832 80.3381 54.495 81.035C62.3069 81.732 68.7328 82.4128 68.7328 82.4128C67.2437 79.2903 66.2384 75.9595 65.751 72.5346C65.192 69.0453 65.192 65.4893 65.751 62C74.4859 64.4906 82.6691 68.6152 89.867 74.1553C93.1867 76.6785 95.72 78.8942 97.6443 80.7693C97.9678 78.6346 98.3326 76.5032 98.7436 74.4278C101.439 60.8156 107.704 50.3044 109.117 48.0545L86.0626 13L151.848 16.6049Z" stroke="#EDEDEE" stroke-width="24" stroke-linecap="round" stroke-linejoin="round" stroke-dasharray="12 24" mask="url(#path-1-outside-1_4479_32364)"/>
</g>
</svg>
