<svg width="408" height="174" viewBox="0 0 408 174" fill="none" xmlns="http://www.w3.org/2000/svg">
<g opacity="0.2">
<mask id="path-1-outside-1_1916_22585" maskUnits="userSpaceOnUse" x="0" y="0.806763" width="408" height="173" fill="black">
<rect fill="white" y="0.806763" width="408" height="173"/>
<path d="M193.491 31.7697C193.491 31.7697 168.702 21.3944 146.354 17.108C133.867 14.5873 121.186 13.1483 108.451 12.8068L135.105 59.0326L193.491 31.7697Z"/>
<path d="M193.491 142.23C193.491 142.23 168.702 152.605 146.354 156.891C133.867 159.412 121.186 160.852 108.451 161.193L135.105 114.967L173.726 118.019L193.491 142.23Z"/>
<path d="M134.953 59.593L86.042 49.1422L101.067 71.4372L45 87.3103L101.067 103.168L86.042 125.463L134.953 115.012V59.593Z"/>
<path d="M135.18 115.073C165.2 136.793 205.923 150.136 250.786 150.136C312.66 150.136 366.696 124.751 395.593 87.0225C366.696 49.2936 312.66 23.9089 250.786 23.9089C205.923 23.9089 165.2 37.2676 135.18 58.9719L121.226 88.6752L135.18 115.073Z"/>
<path d="M135.18 115.073C165.2 136.793 205.923 150.136 250.786 150.136C312.66 150.136 366.696 124.751 395.593 87.0225C366.696 49.2936 312.66 23.9089 250.786 23.9089C205.923 23.9089 165.2 37.2676 135.18 58.9719L121.226 88.6752L135.18 115.073Z"/>
</mask>
<path d="M193.491 31.7697L196.029 37.2062C198.181 36.2015 199.538 34.0224 199.49 31.6483C199.442 29.2742 197.998 27.1518 195.807 26.2349L193.491 31.7697ZM146.354 17.108L145.167 22.9894C145.186 22.9932 145.205 22.997 145.224 23.0006L146.354 17.108ZM108.451 12.8068L108.612 6.80892C106.441 6.75069 104.408 7.87017 103.296 9.73592C102.185 11.6017 102.168 13.9224 103.253 15.8038L108.451 12.8068ZM135.105 59.0326L129.907 62.0297C131.462 64.727 134.822 65.7864 137.643 64.4691L135.105 59.0326ZM193.491 142.23L195.807 147.765C197.554 147.034 198.853 145.522 199.312 143.685C199.771 141.848 199.336 139.902 198.139 138.436L193.491 142.23ZM146.354 156.891L145.224 150.999C145.205 151.002 145.186 151.006 145.167 151.01L146.354 156.891ZM108.451 161.193L103.253 158.196C102.168 160.078 102.185 162.398 103.296 164.264C104.408 166.13 106.441 167.249 108.612 167.191L108.451 161.193ZM135.105 114.967L135.577 108.986C133.27 108.804 131.063 109.965 129.907 111.97L135.105 114.967ZM134.953 59.593H140.953V54.7396L136.206 53.7255L134.953 59.593ZM86.042 49.1422L87.2957 43.2747L72.7592 40.1686L81.0664 52.4953L86.042 49.1422ZM101.067 71.4372L102.701 77.2103L110.672 74.9538L106.043 68.0841L101.067 71.4372ZM45 87.3103L43.3656 81.5372L22.9641 87.3131L43.367 93.0838L45 87.3103ZM101.067 103.168L106.043 106.521L110.673 99.6499L102.7 97.3948L101.067 103.168ZM86.042 125.463L81.0664 122.11L72.7592 134.437L87.2957 131.331L86.042 125.463ZM134.953 115.012L136.206 120.88L140.953 119.866V115.012H134.953ZM135.18 115.073L129.876 117.877C130.306 118.691 130.917 119.395 131.663 119.934L135.18 115.073ZM250.786 150.136V144.136V150.136ZM395.593 87.0225L400.357 90.6709C402.005 88.5181 402.005 85.5269 400.357 83.3741L395.593 87.0225ZM135.18 58.9719L131.665 54.1097C130.841 54.7053 130.182 55.5005 129.75 56.4207L135.18 58.9719ZM173.726 118.019L178.373 114.225L176.753 112.24L174.198 112.038L173.726 118.019ZM121.226 88.6752L115.795 86.1239L114.522 88.833L115.921 91.4792L121.226 88.6752ZM186.087 28.6051C183.084 30.0071 181.787 33.5776 183.189 36.5801C184.591 39.5826 188.161 40.8801 191.164 39.4781L186.087 28.6051ZM171.702 48.5658C174.704 47.1638 176.002 43.5932 174.6 40.5907C173.198 37.5882 169.627 36.2907 166.625 37.6927L171.702 48.5658ZM156.894 42.2365C153.891 43.6385 152.594 47.2091 153.996 50.2116C155.398 53.2141 158.968 54.5116 161.971 53.1096L156.894 42.2365ZM142.509 62.1972C145.511 60.7952 146.809 57.2247 145.407 54.2222C144.005 51.2197 140.434 49.9222 137.432 51.3242L142.509 62.1972ZM135.86 48.3312C134.205 45.4605 130.536 44.4752 127.665 46.1305C124.794 47.7857 123.809 51.4547 125.464 54.3254L135.86 48.3312ZM107.695 23.5082C109.35 26.3788 113.019 27.3642 115.89 25.7089C118.761 24.0537 119.746 20.3847 118.091 17.514L107.695 23.5082ZM114.478 19.0595C117.786 19.2435 120.618 16.7104 120.801 13.4018C120.985 10.0932 118.452 7.26198 115.144 7.07804L114.478 19.0595ZM141.115 10.0252C137.849 9.46305 134.746 11.6547 134.184 14.9204C133.622 18.1861 135.814 21.2891 139.079 21.8513L141.115 10.0252ZM152.978 24.7007C156.198 25.4867 159.444 23.5141 160.23 20.295C161.016 17.0758 159.044 13.8291 155.825 13.0431L152.978 24.7007ZM187.928 23.1469C184.826 21.9827 181.367 23.5539 180.203 26.6563C179.038 29.7587 180.609 33.2176 183.712 34.3819L187.928 23.1469ZM183.712 139.618C180.61 140.782 179.038 144.241 180.202 147.343C181.367 150.446 184.826 152.017 187.928 150.853L183.712 139.618ZM155.825 160.956C159.044 160.17 161.016 156.923 160.23 153.704C159.444 150.485 156.198 148.513 152.978 149.299L155.825 160.956ZM139.079 152.148C135.814 152.71 133.622 155.813 134.184 159.079C134.746 162.345 137.849 164.536 141.115 163.974L139.079 152.148ZM115.144 166.922C118.452 166.738 120.985 163.907 120.801 160.598C120.617 157.289 117.786 154.756 114.478 154.94L115.144 166.922ZM118.091 156.486C119.746 153.615 118.761 149.946 115.89 148.291C113.019 146.636 109.35 147.621 107.695 150.492L118.091 156.486ZM125.464 119.675C123.809 122.545 124.794 126.214 127.665 127.869C130.536 129.525 134.205 128.539 135.86 125.669L125.464 119.675ZM141.069 121.457C144.372 121.718 147.262 119.252 147.523 115.949C147.784 112.645 145.317 109.756 142.014 109.495L141.069 121.457ZM167.761 111.529C164.458 111.268 161.568 113.734 161.307 117.038C161.046 120.341 163.513 123.231 166.816 123.492L167.761 111.529ZM172.372 125.849C174.468 128.416 178.247 128.798 180.814 126.702C183.381 124.607 183.763 120.827 181.668 118.26L172.372 125.849ZM194.845 134.401C192.749 131.834 188.969 131.452 186.402 133.547C183.835 135.643 183.453 139.423 185.549 141.989L194.845 134.401ZM128.055 51.9837C124.814 51.2912 121.626 53.3569 120.933 56.5975C120.241 59.8381 122.307 63.0264 125.547 63.7188L128.055 51.9837ZM92.9401 56.7516C96.1806 57.444 99.3689 55.3783 100.061 52.1377C100.754 48.8972 98.6881 45.7089 95.4475 45.0165L92.9401 56.7516ZM83.5706 56.2112C85.4225 58.9591 89.1514 59.6855 91.8993 57.8336C94.6472 55.9818 95.3736 52.2529 93.5218 49.5049L83.5706 56.2112ZM103.538 64.3683C101.687 61.6203 97.9576 60.8939 95.2097 62.7458C92.4617 64.5977 91.7353 68.3266 93.5872 71.0745L103.538 64.3683ZM94.7603 66.9869C91.5719 67.8896 89.719 71.206 90.6216 74.3944C91.5243 77.5828 94.8408 79.4358 98.0291 78.5331L94.7603 66.9869ZM79.3402 83.8241C82.5285 82.9215 84.3815 79.605 83.4788 76.4166C82.5762 73.2282 79.2597 71.3753 76.0713 72.2779L79.3402 83.8241ZM66.7268 74.9234C63.5384 75.8261 61.6855 79.1426 62.5881 82.331C63.4908 85.5194 66.8073 87.3723 69.9957 86.4696L66.7268 74.9234ZM51.3067 91.7607C54.4951 90.858 56.348 87.5415 55.4453 84.3531C54.5427 81.1648 51.2262 79.3118 48.0378 80.2145L51.3067 91.7607ZM48.0393 94.4053C51.2279 95.3072 54.5439 93.4534 55.4458 90.2648C56.3476 87.0762 54.4938 83.7602 51.3052 82.8583L48.0393 94.4053ZM69.9942 88.1443C66.8056 87.2424 63.4896 89.0962 62.5877 92.2848C61.6859 95.4734 63.5396 98.7894 66.7283 99.6913L69.9942 88.1443ZM76.0728 102.334C79.2614 103.236 82.5774 101.382 83.4792 98.1938C84.3811 95.0051 82.5273 91.6891 79.3387 90.7873L76.0728 102.334ZM98.0277 96.0733C94.8391 95.1714 91.5231 97.0252 90.6212 100.214C89.7194 103.402 91.5731 106.718 94.7618 107.62L98.0277 96.0733ZM93.5872 103.531C91.7353 106.279 92.4617 110.008 95.2097 111.86C97.9576 113.712 101.687 112.985 103.538 110.237L93.5872 103.531ZM93.5218 125.101C95.3736 122.353 94.6472 118.624 91.8993 116.772C89.1513 114.92 85.4225 115.646 83.5706 118.394L93.5218 125.101ZM95.4475 129.589C98.6881 128.897 100.754 125.708 100.061 122.468C99.3689 119.227 96.1806 117.162 92.9401 117.854L95.4475 129.589ZM125.547 110.887C122.307 111.579 120.241 114.767 120.933 118.008C121.626 121.249 124.814 123.314 128.055 122.622L125.547 110.887ZM140.953 110.394C140.953 107.08 138.266 104.394 134.953 104.394C131.639 104.394 128.953 107.08 128.953 110.394H140.953ZM128.953 91.921C128.953 95.2348 131.639 97.921 134.953 97.921C138.266 97.921 140.953 95.2348 140.953 91.921H128.953ZM140.953 82.6845C140.953 79.3708 138.266 76.6845 134.953 76.6845C131.639 76.6845 128.953 79.3708 128.953 82.6845H140.953ZM128.953 64.2113C128.953 67.525 131.639 70.2113 134.953 70.2113C138.266 70.2113 140.953 67.525 140.953 64.2113H128.953ZM138.159 107.869C136.61 104.94 132.98 103.82 130.05 105.369C127.121 106.918 126.001 110.548 127.55 113.477L138.159 107.869ZM118.247 95.8789C119.796 98.8084 123.426 99.9279 126.355 98.3793C129.285 96.8306 130.404 93.2003 128.856 90.2707L118.247 95.8789ZM128.982 86.2759C130.391 83.2767 129.102 79.7031 126.103 78.2941C123.103 76.885 119.53 78.1741 118.121 81.1734L128.982 86.2759ZM127.424 61.3712C126.015 64.3704 127.304 67.944 130.303 69.353C133.302 70.7621 136.876 69.473 138.285 66.4737L127.424 61.3712ZM144.096 60.1023C146.862 58.2764 147.623 54.5546 145.797 51.7893C143.971 49.024 140.249 48.2625 137.484 50.0884L144.096 60.1023ZM162.171 36.481C159.155 37.8533 157.822 41.4109 159.195 44.4271C160.567 47.4433 164.125 48.7759 167.141 47.4036L162.171 36.481ZM179.352 42.3754C182.459 41.224 184.045 37.7717 182.893 34.6645C181.742 31.5572 178.29 29.9716 175.182 31.123L179.352 42.3754ZM202.112 23.1964C198.878 23.9172 196.84 27.1235 197.561 30.3579C198.282 33.5923 201.488 35.6299 204.722 34.909L202.112 23.1964ZM217.742 32.4474C221.016 31.9367 223.256 28.8684 222.746 25.5943C222.235 22.3202 219.167 20.0801 215.892 20.5908L217.742 32.4474ZM243.782 18.015C240.47 18.1155 237.867 20.882 237.967 24.1942C238.067 27.5064 240.834 30.1099 244.146 30.0095L243.782 18.015ZM256.088 29.9729C259.401 30.053 262.152 27.4324 262.232 24.1197C262.312 20.8069 259.691 18.0565 256.379 17.9764L256.088 29.9729ZM278.691 19.6129C275.402 19.207 272.407 21.5441 272.001 24.8328C271.595 28.1216 273.932 31.1167 277.221 31.5226L278.691 19.6129ZM287.694 33.0844C290.958 33.6564 294.067 31.4741 294.639 28.2101C295.211 24.9462 293.029 21.8365 289.765 21.2646L287.694 33.0844ZM311.603 26.2743C308.417 25.3637 305.096 27.2084 304.186 30.3946C303.275 33.5807 305.12 36.9018 308.306 37.8124L311.603 26.2743ZM318.38 40.9902C321.511 42.0735 324.928 40.413 326.012 37.2814C327.095 34.1498 325.435 30.7329 322.303 29.6495L318.38 40.9902ZM343.081 38.1895C340.095 36.7532 336.509 38.0097 335.073 40.996C333.637 43.9823 334.893 47.5674 337.88 49.0037L343.081 38.1895ZM347.223 53.8527C350.115 55.4694 353.771 54.4351 355.387 51.5426C357.004 48.65 355.97 44.9945 353.077 43.3778L347.223 53.8527ZM372.017 55.6447C369.364 53.6601 365.604 54.2026 363.619 56.8563C361.634 59.51 362.177 63.27 364.831 65.2546L372.017 55.6447ZM372.974 71.8107C375.477 73.9816 379.267 73.7118 381.438 71.2082C383.609 68.7046 383.339 64.9152 380.835 62.7443L372.974 71.8107ZM396.79 78.9227C394.663 76.3818 390.879 76.0464 388.338 78.1736C385.797 80.3007 385.462 84.0848 387.589 86.6257L396.79 78.9227ZM387.589 87.4193C385.462 89.9602 385.797 93.7443 388.338 95.8715C390.879 97.9986 394.663 97.6632 396.79 95.1223L387.589 87.4193ZM380.835 111.301C383.339 109.13 383.609 105.34 381.438 102.837C379.267 100.333 375.477 100.063 372.974 102.234L380.835 111.301ZM364.831 108.79C362.177 110.775 361.634 114.535 363.619 117.189C365.604 119.842 369.364 120.385 372.017 118.4L364.831 108.79ZM353.077 130.667C355.97 129.05 357.004 125.395 355.387 122.502C353.771 119.61 350.115 118.576 347.223 120.192L353.077 130.667ZM337.88 125.041C334.893 126.478 333.637 130.063 335.073 133.049C336.509 136.035 340.095 137.292 343.081 135.855L337.88 125.041ZM322.303 144.395C325.435 143.312 327.095 139.895 326.012 136.764C324.928 133.632 321.511 131.971 318.38 133.055L322.303 144.395ZM308.306 136.233C305.12 137.143 303.275 140.464 304.186 143.65C305.096 146.837 308.417 148.681 311.603 147.771L308.306 136.233ZM289.765 152.78C293.029 152.208 295.211 149.099 294.639 145.835C294.067 142.571 290.958 140.389 287.694 140.961L289.765 152.78ZM277.221 142.522C273.932 142.928 271.595 145.923 272.001 149.212C272.407 152.501 275.402 154.838 278.691 154.432L277.221 142.522ZM256.379 156.069C259.691 155.988 262.312 153.238 262.232 149.925C262.152 146.613 259.401 143.992 256.088 144.072L256.379 156.069ZM244.146 144.036C240.834 143.935 238.067 146.539 237.967 149.851C237.866 153.163 240.47 155.93 243.782 156.03L244.146 144.036ZM215.892 153.456C219.166 153.967 222.234 151.726 222.745 148.452C223.255 145.178 221.015 142.11 217.741 141.6L215.892 153.456ZM204.72 139.139C201.486 138.419 198.28 140.457 197.559 143.691C196.839 146.926 198.877 150.132 202.111 150.852L204.72 139.139ZM175.18 142.928C178.287 144.079 181.74 142.493 182.891 139.386C184.042 136.279 182.456 132.826 179.349 131.675L175.18 142.928ZM167.138 126.647C164.122 125.274 160.565 126.607 159.192 129.623C157.82 132.639 159.152 136.197 162.168 137.569L167.138 126.647ZM137.482 123.957C140.247 125.784 143.969 125.024 145.795 122.259C147.622 119.494 146.861 115.772 144.097 113.945L137.482 123.957ZM190.952 26.3332L186.087 28.6051L191.164 39.4781L196.029 37.2062L190.952 26.3332ZM166.625 37.6927L156.894 42.2365L161.971 53.1096L171.702 48.5658L166.625 37.6927ZM137.432 51.3242L132.566 53.5961L137.643 64.4691L142.509 62.1972L137.432 51.3242ZM140.302 56.0355L135.86 48.3312L125.464 54.3254L129.907 62.0297L140.302 56.0355ZM118.091 17.514L113.648 9.80968L103.253 15.8038L107.695 23.5082L118.091 17.514ZM108.29 18.8046C110.354 18.86 112.417 18.945 114.478 19.0595L115.144 7.07804C112.968 6.9571 110.791 6.86737 108.612 6.80892L108.29 18.8046ZM139.079 21.8513C141.113 22.2014 143.143 22.5808 145.167 22.9894L147.542 11.2267C145.405 10.7953 143.262 10.3948 141.115 10.0252L139.079 21.8513ZM145.224 23.0006C147.775 23.4899 150.374 24.065 152.978 24.7007L155.825 13.0431C153.056 12.3672 150.26 11.7477 147.484 11.2154L145.224 23.0006ZM183.712 34.3819C186.042 35.2561 187.92 35.9923 189.211 36.5074C189.856 36.7649 190.354 36.967 190.687 37.1034C190.853 37.1715 190.979 37.2232 191.061 37.2572C191.102 37.2742 191.132 37.2867 191.151 37.2946C191.16 37.2986 191.167 37.3014 191.171 37.303C191.173 37.3039 191.174 37.3044 191.175 37.3046C191.175 37.3047 191.175 37.3048 191.175 37.3048C191.175 37.3047 191.175 37.3047 191.175 37.3046C191.175 37.3046 191.175 37.3046 191.175 37.3046C191.174 37.3045 191.174 37.3044 193.491 31.7697C195.807 26.2349 195.807 26.2349 195.807 26.2348C195.807 26.2347 195.807 26.2347 195.807 26.2346C195.806 26.2345 195.806 26.2343 195.806 26.2342C195.805 26.2338 195.804 26.2334 195.803 26.2329C195.8 26.232 195.797 26.2307 195.794 26.2292C195.786 26.2261 195.776 26.2218 195.763 26.2164C195.737 26.2055 195.7 26.19 195.651 26.17C195.555 26.1301 195.415 26.0722 195.233 25.9978C194.869 25.8489 194.339 25.6337 193.66 25.3625C192.301 24.8203 190.345 24.0538 187.928 23.1469L183.712 34.3819ZM193.491 142.23C191.174 136.695 191.175 136.695 191.175 136.695C191.175 136.695 191.175 136.695 191.175 136.695C191.175 136.695 191.175 136.695 191.175 136.695C191.175 136.695 191.175 136.695 191.175 136.695C191.174 136.696 191.173 136.696 191.171 136.697C191.167 136.698 191.16 136.701 191.151 136.705C191.132 136.713 191.102 136.726 191.061 136.743C190.979 136.777 190.853 136.828 190.687 136.897C190.354 137.033 189.856 137.235 189.211 137.492C187.92 138.008 186.042 138.744 183.712 139.618L187.928 150.853C190.344 149.946 192.301 149.18 193.659 148.637C194.339 148.366 194.869 148.151 195.233 148.002C195.414 147.928 195.555 147.87 195.651 147.83C195.699 147.81 195.737 147.795 195.763 147.784C195.776 147.778 195.786 147.774 195.794 147.771C195.797 147.769 195.8 147.768 195.803 147.767C195.804 147.767 195.805 147.766 195.806 147.766C195.806 147.766 195.806 147.766 195.807 147.765C195.807 147.765 195.807 147.765 195.807 147.765C195.807 147.765 195.807 147.765 193.491 142.23ZM152.978 149.299C150.374 149.934 147.775 150.509 145.224 150.999L147.484 162.784C150.26 162.252 153.056 161.632 155.825 160.956L152.978 149.299ZM145.167 151.01C143.143 151.418 141.113 151.798 139.079 152.148L141.115 163.974C143.262 163.604 145.405 163.204 147.542 162.773L145.167 151.01ZM114.478 154.94C112.417 155.055 110.354 155.14 108.29 155.195L108.612 167.191C110.791 167.133 112.968 167.043 115.144 166.922L114.478 154.94ZM113.648 164.19L118.091 156.486L107.695 150.492L103.253 158.196L113.648 164.19ZM135.86 125.669L140.302 117.964L129.907 111.97L125.464 119.675L135.86 125.669ZM134.632 120.949L141.069 121.457L142.014 109.495L135.577 108.986L134.632 120.949ZM166.816 123.492L173.253 124.001L174.198 112.038L167.761 111.529L166.816 123.492ZM169.078 121.814L172.372 125.849L181.668 118.26L178.373 114.225L169.078 121.814ZM185.549 141.989L188.843 146.025L198.139 138.436L194.845 134.401L185.549 141.989ZM136.206 53.7255L128.055 51.9837L125.547 63.7188L133.699 65.4606L136.206 53.7255ZM95.4475 45.0165L87.2957 43.2747L84.7883 55.0098L92.9401 56.7516L95.4475 45.0165ZM81.0664 52.4953L83.5706 56.2112L93.5218 49.5049L91.0176 45.7891L81.0664 52.4953ZM93.5872 71.0745L96.0914 74.7904L106.043 68.0841L103.538 64.3683L93.5872 71.0745ZM99.4326 65.6641L94.7603 66.9869L98.0291 78.5331L102.701 77.2103L99.4326 65.6641ZM76.0713 72.2779L66.7268 74.9234L69.9957 86.4696L79.3402 83.8241L76.0713 72.2779ZM48.0378 80.2145L43.3656 81.5372L46.6344 93.0834L51.3067 91.7607L48.0378 80.2145ZM43.367 93.0838L48.0393 94.4053L51.3052 82.8583L46.633 81.5368L43.367 93.0838ZM66.7283 99.6913L76.0728 102.334L79.3387 90.7873L69.9942 88.1443L66.7283 99.6913ZM94.7618 107.62L99.434 108.942L102.7 97.3948L98.0277 96.0733L94.7618 107.62ZM96.0914 99.8151L93.5872 103.531L103.538 110.237L106.043 106.521L96.0914 99.8151ZM83.5706 118.394L81.0664 122.11L91.0176 128.816L93.5218 125.101L83.5706 118.394ZM87.2957 131.331L95.4475 129.589L92.9401 117.854L84.7883 119.596L87.2957 131.331ZM128.055 122.622L136.206 120.88L133.699 109.145L125.547 110.887L128.055 122.622ZM140.953 115.012V110.394H128.953V115.012H140.953ZM140.953 91.921V82.6845H128.953V91.921H140.953ZM140.953 64.2113V59.593H128.953V64.2113H140.953ZM140.485 112.269L138.159 107.869L127.55 113.477L129.876 117.877L140.485 112.269ZM128.856 90.2707L126.53 85.8711L115.921 91.4792L118.247 95.8789L128.856 90.2707ZM126.656 91.2264L128.982 86.2759L118.121 81.1734L115.795 86.1239L126.656 91.2264ZM138.285 66.4737L140.611 61.5232L129.75 56.4207L127.424 61.3712L138.285 66.4737ZM138.696 63.8342C140.457 62.5609 142.257 61.3165 144.096 60.1023L137.484 50.0884C135.505 51.395 133.565 52.7358 131.665 54.1097L138.696 63.8342ZM167.141 47.4036C171.1 45.6021 175.174 43.9234 179.352 42.3754L175.182 31.123C170.737 32.77 166.397 34.5585 162.171 36.481L167.141 47.4036ZM204.722 34.909C208.99 33.958 213.332 33.1353 217.742 32.4474L215.892 20.5908C211.229 21.3184 206.632 22.1889 202.112 23.1964L204.722 34.909ZM244.146 30.0095C246.348 29.9427 248.562 29.9089 250.786 29.9089V17.9089C248.44 17.9089 246.106 17.9445 243.782 18.015L244.146 30.0095ZM250.786 29.9089C252.56 29.9089 254.328 29.9304 256.088 29.9729L256.379 17.9764C254.521 17.9315 252.657 17.9089 250.786 17.9089V29.9089ZM277.221 31.5226C280.752 31.9584 284.244 32.48 287.694 33.0844L289.765 21.2646C286.116 20.6251 282.423 20.0735 278.691 19.6129L277.221 31.5226ZM308.306 37.8124C311.722 38.7887 315.081 39.8491 318.38 40.9902L322.303 29.6495C318.796 28.4365 315.228 27.3103 311.603 26.2743L308.306 37.8124ZM337.88 49.0037C341.074 50.5403 344.19 52.1581 347.223 53.8527L353.077 43.3778C349.828 41.5618 346.494 39.831 343.081 38.1895L337.88 49.0037ZM364.831 65.2546C367.654 67.3659 370.37 69.553 372.974 71.8107L380.835 62.7443C378.009 60.2934 375.067 57.9253 372.017 55.6447L364.831 65.2546ZM387.589 86.6257C388.704 87.9578 389.785 89.3065 390.83 90.6709L400.357 83.3741C399.205 81.8702 398.016 80.3862 396.79 78.9227L387.589 86.6257ZM390.83 83.3741C389.785 84.7385 388.704 86.0872 387.589 87.4193L396.79 95.1223C398.016 93.6588 399.205 92.1748 400.357 90.6709L390.83 83.3741ZM372.974 102.234C370.37 104.492 367.654 106.679 364.831 108.79L372.017 118.4C375.067 116.12 378.009 113.752 380.835 111.301L372.974 102.234ZM347.223 120.192C344.19 121.887 341.074 123.505 337.88 125.041L343.081 135.855C346.494 134.214 349.828 132.483 353.077 130.667L347.223 120.192ZM318.38 133.055C315.081 134.196 311.722 135.256 308.306 136.233L311.603 147.771C315.228 146.735 318.796 145.608 322.303 144.395L318.38 133.055ZM287.694 140.961C284.244 141.565 280.752 142.087 277.221 142.522L278.691 154.432C282.423 153.971 286.116 153.42 289.765 152.78L287.694 140.961ZM256.088 144.072C254.328 144.115 252.56 144.136 250.786 144.136V156.136C252.657 156.136 254.521 156.113 256.379 156.069L256.088 144.072ZM250.786 144.136C248.562 144.136 246.348 144.102 244.146 144.036L243.782 156.03C246.106 156.101 248.44 156.136 250.786 156.136V144.136ZM217.741 141.6C213.331 140.912 208.988 140.09 204.72 139.139L202.111 150.852C206.632 151.859 211.228 152.729 215.892 153.456L217.741 141.6ZM179.349 131.675C175.171 130.127 171.098 128.449 167.138 126.647L162.168 137.569C166.394 139.492 170.735 141.281 175.18 142.928L179.349 131.675ZM144.097 113.945C142.258 112.731 140.458 111.486 138.697 110.212L131.663 119.934C133.563 121.309 135.503 122.65 137.482 123.957L144.097 113.945ZM193.491 31.7697L198.568 42.6427C202.871 40.6334 205.585 36.2752 205.488 31.527C205.392 26.7787 202.505 22.5338 198.124 20.7002L193.491 31.7697ZM146.354 17.108L143.98 28.8707C144.018 28.8784 144.056 28.8859 144.094 28.8932L146.354 17.108ZM108.451 12.8068L108.772 0.811076C104.43 0.694624 100.364 2.93357 98.1414 6.66508C95.9184 10.3966 95.8853 15.0381 98.055 18.8009L108.451 12.8068ZM135.105 59.0326L124.709 65.0268C127.819 70.4213 134.539 72.5403 140.182 69.9057L135.105 59.0326ZM193.491 142.23L198.124 153.3C201.617 151.838 204.215 148.813 205.133 145.14C206.051 141.466 205.181 137.575 202.787 134.641L193.491 142.23ZM146.354 156.891L144.094 145.106C144.056 145.113 144.018 145.121 143.98 145.128L146.354 156.891ZM108.451 161.193L98.055 155.199C95.8853 158.962 95.9184 163.603 98.1414 167.335C100.364 171.066 104.43 173.305 108.772 173.189L108.451 161.193ZM135.105 114.967L136.05 103.005C131.435 102.64 127.021 104.963 124.709 108.973L135.105 114.967ZM134.953 59.593H146.953V49.8862L137.46 47.8579L134.953 59.593ZM86.042 49.1422L88.5494 37.4071L59.4765 31.1951L76.0908 55.8485L86.042 49.1422ZM101.067 71.4372L104.336 82.9834L120.277 78.4703L111.018 64.731L101.067 71.4372ZM45 87.3103L41.7312 75.7641L0.928165 87.3158L41.7341 98.8573L45 87.3103ZM101.067 103.168L111.018 109.875L120.28 96.1316L104.333 91.6213L101.067 103.168ZM86.042 125.463L76.0908 118.757L59.4765 143.41L88.5494 137.198L86.042 125.463ZM134.953 115.012L137.46 126.748L146.953 124.719V115.012H134.953ZM135.18 115.073L124.571 120.681C125.432 122.309 126.655 123.716 128.146 124.795L135.18 115.073ZM250.786 150.136V138.136V150.136ZM395.593 87.0225L405.12 94.3193C408.418 90.0137 408.418 84.0313 405.12 79.7257L395.593 87.0225ZM135.18 58.9719L128.149 49.2474C126.502 50.4387 125.184 52.0291 124.319 53.8694L135.18 58.9719ZM173.726 118.019L183.021 110.43L179.78 106.46L174.671 106.056L173.726 118.019ZM121.226 88.6752L110.364 83.5726L107.819 88.9909L110.617 94.2833L121.226 88.6752ZM183.548 23.1685C177.543 25.9725 174.948 33.1136 177.752 39.1187C180.556 45.1237 187.697 47.7186 193.702 44.9146L183.548 23.1685ZM174.24 54.0023C180.245 51.1983 182.84 44.0572 180.036 38.0522C177.232 32.0471 170.091 29.4522 164.086 32.2562L174.24 54.0023ZM154.355 36.8C148.35 39.604 145.755 46.7451 148.559 52.7501C151.363 58.7551 158.504 61.3501 164.509 58.5461L154.355 36.8ZM145.047 67.6338C151.052 64.8298 153.647 57.6887 150.843 51.6836C148.039 45.6786 140.898 43.0837 134.893 45.8876L145.047 67.6338ZM141.058 45.3341C137.747 39.5928 130.409 37.6221 124.668 40.9326C118.927 44.2431 116.956 51.5811 120.267 57.3225L141.058 45.3341ZM102.497 26.5052C105.808 32.2466 113.146 34.2172 118.887 30.9067C124.629 27.5963 126.599 20.2583 123.289 14.5169L102.497 26.5052ZM114.145 25.0503C120.762 25.4182 126.424 20.3521 126.792 13.7349C127.16 7.1177 122.094 1.45517 115.477 1.08729L114.145 25.0503ZM142.133 4.11211C135.601 2.9879 129.395 7.37126 128.271 13.9026C127.147 20.434 131.53 26.6401 138.062 27.7643L142.133 4.11211ZM151.555 30.5295C157.994 32.1014 164.487 28.1564 166.059 21.7181C167.631 15.2797 163.686 8.7862 157.248 7.21432L151.555 30.5295ZM190.036 17.5295C183.831 15.2009 176.914 18.3433 174.585 24.5482C172.257 30.7531 175.399 37.6708 181.604 39.9993L190.036 17.5295ZM181.604 134C175.399 136.329 172.257 143.246 174.585 149.451C176.913 155.656 183.831 158.799 190.036 156.47L181.604 134ZM157.248 166.785C163.686 165.213 167.631 158.72 166.059 152.281C164.487 145.843 157.994 141.898 151.555 143.47L157.248 166.785ZM138.061 146.235C131.53 147.359 127.147 153.565 128.271 160.097C129.395 166.628 135.602 171.011 142.133 169.887L138.061 146.235ZM115.477 172.913C122.094 172.545 127.16 166.882 126.792 160.265C126.424 153.648 120.762 148.582 114.144 148.95L115.477 172.913ZM123.289 159.483C126.599 153.742 124.629 146.404 118.887 143.093C113.146 139.783 105.808 141.753 102.497 147.495L123.289 159.483ZM120.267 116.677C116.956 122.419 118.927 129.757 124.668 133.067C130.409 136.378 137.747 134.407 141.058 128.666L120.267 116.677ZM140.596 127.439C147.203 127.961 152.982 123.028 153.504 116.421C154.026 109.814 149.094 104.035 142.487 103.513L140.596 127.439ZM168.234 105.548C161.627 105.026 155.848 109.958 155.326 116.565C154.804 123.172 159.737 128.951 166.343 129.473L168.234 105.548ZM167.724 129.643C171.915 134.777 179.475 135.541 184.609 131.35C189.742 127.159 190.507 119.599 186.316 114.466L167.724 129.643ZM199.492 130.606C195.301 125.472 187.742 124.708 182.608 128.899C177.474 133.091 176.71 140.65 180.901 145.784L199.492 130.606ZM129.308 46.1161C122.827 44.7313 116.451 48.8626 115.066 55.3438C113.681 61.8249 117.812 68.2015 124.294 69.5863L129.308 46.1161ZM91.6863 62.6191C98.1675 64.0039 104.544 59.8726 105.929 53.3915C107.314 46.9103 103.182 40.5337 96.7012 39.1489L91.6863 62.6191ZM78.595 59.5643C82.2987 65.0602 89.7565 66.513 95.2524 62.8092C100.748 59.1055 102.201 51.6477 98.4973 46.1518L78.595 59.5643ZM108.514 61.0151C104.81 55.5193 97.3524 54.0665 91.8566 57.7702C86.3607 61.474 84.9079 68.9318 88.6116 74.4277L108.514 61.0151ZM93.1259 61.2138C86.7491 63.0191 83.0432 69.652 84.8485 76.0288C86.6539 82.4056 93.2868 86.1115 99.6636 84.3062L93.1259 61.2138ZM80.9746 89.5972C87.3514 87.7919 91.0573 81.159 89.2519 74.7822C87.4466 68.4054 80.8137 64.6995 74.4369 66.5048L80.9746 89.5972ZM65.0924 69.1503C58.7156 70.9557 55.0097 77.5886 56.815 83.9654C58.6204 90.3422 65.2533 94.0481 71.6301 92.2427L65.0924 69.1503ZM52.9411 97.5338C59.3179 95.7284 63.0238 89.0955 61.2184 82.7187C59.4131 76.3419 52.7802 72.636 46.4034 74.4414L52.9411 97.5338ZM46.4063 100.179C52.7835 101.983 59.4155 98.275 61.2193 91.8978C63.023 85.5205 59.3154 78.8885 52.9382 77.0848L46.4063 100.179ZM71.6272 82.3708C65.2499 80.5671 58.618 84.2746 56.8142 90.6519C55.0105 97.0291 58.7181 103.661 65.0953 105.465L71.6272 82.3708ZM74.4398 108.108C80.817 109.912 87.449 106.204 89.2528 99.8267C91.0565 93.4495 87.3489 86.8175 80.9717 85.0138L74.4398 108.108ZM99.6607 90.2998C93.2834 88.496 86.6515 92.2036 84.8477 98.5808C83.044 104.958 86.7515 111.59 93.1288 113.394L99.6607 90.2998ZM88.6116 100.178C84.9079 105.674 86.3607 113.132 91.8566 116.835C97.3524 120.539 104.81 119.086 108.514 113.59L88.6116 100.178ZM98.4973 128.454C102.201 122.958 100.748 115.5 95.2524 111.796C89.7565 108.093 82.2987 109.545 78.595 115.041L98.4973 128.454ZM96.7012 135.457C103.182 134.072 107.314 127.695 105.929 121.214C104.544 114.733 98.1675 110.602 91.6863 111.986L96.7012 135.457ZM124.294 105.019C117.812 106.404 113.681 112.781 115.066 119.262C116.451 125.743 122.827 129.874 129.308 128.489L124.294 105.019ZM146.953 110.394C146.953 103.767 141.58 98.3942 134.953 98.3942C128.325 98.3942 122.953 103.767 122.953 110.394H146.953ZM122.953 91.921C122.953 98.5485 128.325 103.921 134.953 103.921C141.58 103.921 146.953 98.5485 146.953 91.921H122.953ZM146.953 82.6845C146.953 76.057 141.58 70.6845 134.953 70.6845C128.325 70.6845 122.953 76.057 122.953 82.6845H146.953ZM122.953 64.2113C122.953 70.8387 128.325 76.2113 134.953 76.2113C141.58 76.2113 146.953 70.8387 146.953 64.2113H122.953ZM143.463 105.065C140.366 99.2061 133.105 96.9672 127.246 100.064C121.387 103.162 119.148 110.422 122.246 116.282L143.463 105.065ZM112.942 98.683C116.04 104.542 123.3 106.781 129.159 103.684C135.019 100.586 137.258 93.3258 134.16 87.4667L112.942 98.683ZM134.412 88.8272C137.231 82.8288 134.652 75.6816 128.654 72.8635C122.655 70.0454 115.508 72.6236 112.69 78.6221L134.412 88.8272ZM121.993 58.8199C119.175 64.8183 121.753 71.9655 127.752 74.7836C133.75 77.6017 140.897 75.0235 143.716 69.025L121.993 58.8199ZM147.402 65.1093C152.933 61.4575 154.456 54.0137 150.804 48.4832C147.152 42.9526 139.709 41.4296 134.178 45.0814L147.402 65.1093ZM159.687 31.0197C153.654 33.7642 150.989 40.8794 153.733 46.9118C156.478 52.9442 163.593 55.6095 169.626 52.865L159.687 31.0197ZM181.437 48.0015C187.651 45.6988 190.822 38.7942 188.519 32.5797C186.217 26.3652 179.312 23.1941 173.098 25.4968L181.437 48.0015ZM200.807 17.3401C194.338 18.7817 190.263 25.1944 191.704 31.6631C193.146 38.1318 199.559 42.207 206.027 40.7654L200.807 17.3401ZM218.667 38.3757C225.215 37.3542 229.695 31.2178 228.674 24.6695C227.652 18.1213 221.516 13.641 214.968 14.6625L218.667 38.3757ZM243.6 12.0177C236.976 12.2187 231.769 17.7517 231.97 24.3761C232.171 31.0005 237.704 36.2077 244.328 36.0067L243.6 12.0177ZM255.943 35.9712C262.569 36.1313 268.07 30.8902 268.23 24.2647C268.39 17.6392 263.149 12.1384 256.524 11.9782L255.943 35.9712ZM279.426 13.6581C272.848 12.8463 266.858 17.5204 266.046 24.0979C265.234 30.6754 269.908 36.6656 276.486 37.4774L279.426 13.6581ZM286.658 38.9944C293.186 40.1383 299.405 35.7737 300.549 29.2458C301.693 22.7178 297.328 16.4985 290.8 15.3546L286.658 38.9944ZM313.252 20.5053C306.88 18.6841 300.238 22.3735 298.417 28.7458C296.595 35.1181 300.285 41.7602 306.657 43.5814L313.252 20.5053ZM316.418 46.6605C322.682 48.8271 329.515 45.5062 331.682 39.2429C333.849 32.9797 330.528 26.1459 324.264 23.9792L316.418 46.6605ZM345.681 32.7824C339.709 29.9098 332.539 32.4229 329.666 38.3954C326.793 44.3679 329.307 51.5383 335.279 54.4108L345.681 32.7824ZM344.295 59.0902C350.08 62.3236 357.391 60.255 360.625 54.4699C363.858 48.6847 361.79 41.3738 356.004 38.1404L344.295 59.0902ZM375.611 50.8397C370.303 46.8706 362.783 47.9555 358.814 53.2629C354.845 58.5703 355.93 66.0904 361.237 70.0595L375.611 50.8397ZM369.043 76.3439C374.05 80.6856 381.629 80.1461 385.971 75.1388C390.313 70.1316 389.773 62.5528 384.766 58.2111L369.043 76.3439ZM401.391 75.0712C397.137 69.9895 389.569 69.3187 384.487 73.5729C379.405 77.8271 378.734 85.3955 382.988 90.4772L401.391 75.0712ZM382.988 83.5678C378.734 88.6496 379.405 96.2179 384.487 100.472C389.569 104.726 397.137 104.056 401.391 98.9738L382.988 83.5678ZM384.766 115.834C389.773 111.492 390.313 103.913 385.971 98.9062C381.629 93.8989 374.05 93.3594 369.043 97.7011L384.766 115.834ZM361.237 103.985C355.93 107.955 354.845 115.475 358.814 120.782C362.783 126.09 370.303 127.174 375.611 123.205L361.237 103.985ZM356.004 135.905C361.79 132.671 363.858 125.36 360.625 119.575C357.391 113.79 350.08 111.721 344.295 114.955L356.004 135.905ZM335.279 119.634C329.307 122.507 326.793 129.677 329.666 135.65C332.539 141.622 339.709 144.135 345.681 141.263L335.279 119.634ZM324.264 150.066C330.528 147.899 333.849 141.065 331.682 134.802C329.515 128.539 322.682 125.218 316.418 127.385L324.264 150.066ZM306.657 130.464C300.285 132.285 296.595 138.927 298.417 145.299C300.238 151.671 306.88 155.361 313.252 153.54L306.657 130.464ZM290.8 158.69C297.328 157.546 301.693 151.327 300.549 144.799C299.405 138.271 293.186 133.907 286.658 135.051L290.8 158.69ZM276.486 136.568C269.908 137.379 265.234 143.37 266.046 149.947C266.858 156.525 272.848 161.199 279.426 160.387L276.486 136.568ZM256.524 162.067C263.149 161.907 268.39 156.406 268.23 149.78C268.07 143.155 262.569 137.914 255.943 138.074L256.524 162.067ZM244.328 138.038C237.703 137.838 232.17 143.045 231.97 149.669C231.769 156.294 236.976 161.827 243.601 162.027L244.328 138.038ZM214.968 159.385C221.516 160.406 227.652 155.925 228.673 149.376C229.694 142.828 225.213 136.692 218.665 135.671L214.968 159.385ZM206.025 133.283C199.556 131.842 193.144 135.918 191.703 142.387C190.262 148.856 194.338 155.268 200.807 156.709L206.025 133.283ZM173.096 148.554C179.31 150.856 186.215 147.685 188.517 141.47C190.82 135.256 187.648 128.351 181.434 126.049L173.096 148.554ZM169.623 121.186C163.591 118.441 156.476 121.106 153.731 127.138C150.986 133.17 153.651 140.286 159.683 143.031L169.623 121.186ZM134.174 128.964C139.704 132.617 147.148 131.096 150.801 125.566C154.455 120.037 152.934 112.592 147.404 108.939L134.174 128.964ZM188.414 20.8966L183.548 23.1685L193.702 44.9146L198.568 42.6427L188.414 20.8966ZM164.086 32.2562L154.355 36.8L164.509 58.5461L174.24 54.0023L164.086 32.2562ZM134.893 45.8876L130.028 48.1595L140.182 69.9057L145.047 67.6338L134.893 45.8876ZM145.5 53.0384L141.058 45.3341L120.267 57.3225L124.709 65.0268L145.5 53.0384ZM123.289 14.5169L118.846 6.8126L98.055 18.8009L102.497 26.5052L123.289 14.5169ZM108.129 24.8024C110.136 24.8563 112.141 24.9389 114.145 25.0503L115.477 1.08729C113.244 0.96316 111.009 0.871062 108.772 0.811076L108.129 24.8024ZM138.062 27.7643C140.039 28.1047 142.012 28.4735 143.98 28.8707L148.729 5.34529C146.536 4.90255 144.337 4.49146 142.133 4.11211L138.062 27.7643ZM144.094 28.8932C146.533 29.361 149.034 29.9139 151.555 30.5295L157.248 7.21432C154.397 6.51825 151.502 5.87657 148.615 5.32283L144.094 28.8932ZM181.604 39.9993C183.89 40.8573 185.73 41.5783 186.987 42.0799C187.615 42.3306 188.096 42.5261 188.414 42.6562C188.573 42.7212 188.691 42.7698 188.765 42.8008C188.803 42.8162 188.829 42.8273 188.845 42.8337C188.852 42.837 188.857 42.8391 188.86 42.84C188.861 42.8404 188.861 42.8406 188.861 42.8405C188.861 42.8404 188.86 42.8403 188.86 42.84C188.86 42.8399 188.859 42.8398 188.859 42.8397C188.859 42.8396 188.858 42.8395 188.858 42.8394C188.858 42.8393 188.858 42.8392 193.491 31.7697C198.124 20.7002 198.124 20.7 198.123 20.6999C198.123 20.6998 198.123 20.6997 198.123 20.6996C198.122 20.6994 198.122 20.6991 198.121 20.6989C198.12 20.6984 198.118 20.6978 198.117 20.6971C198.114 20.6958 198.11 20.6942 198.105 20.6923C198.096 20.6884 198.084 20.6834 198.069 20.6772C198.039 20.6649 197.999 20.6479 197.947 20.6264C197.843 20.5835 197.695 20.5225 197.506 20.445C197.127 20.2899 196.58 20.068 195.884 19.79C194.492 19.2343 192.496 18.4526 190.036 17.5295L181.604 39.9993ZM193.491 142.23C188.858 131.161 188.858 131.161 188.859 131.16C188.859 131.16 188.859 131.16 188.859 131.16C188.86 131.16 188.86 131.16 188.86 131.16C188.861 131.16 188.861 131.159 188.861 131.159C188.861 131.159 188.861 131.159 188.86 131.16C188.858 131.161 188.853 131.163 188.845 131.166C188.829 131.173 188.803 131.184 188.766 131.199C188.691 131.23 188.573 131.279 188.414 131.344C188.096 131.474 187.615 131.669 186.987 131.92C185.73 132.422 183.89 133.142 181.604 134L190.036 156.47C192.496 155.547 194.491 154.766 195.884 154.21C196.58 153.932 197.126 153.71 197.505 153.555C197.695 153.478 197.843 153.417 197.946 153.374C197.998 153.352 198.039 153.335 198.069 153.323C198.084 153.317 198.096 153.312 198.105 153.308C198.109 153.306 198.113 153.304 198.116 153.303C198.118 153.302 198.119 153.302 198.121 153.301C198.121 153.301 198.122 153.301 198.122 153.3C198.123 153.3 198.123 153.3 198.123 153.3C198.123 153.3 198.124 153.3 193.491 142.23ZM151.555 143.47C149.034 144.085 146.533 144.638 144.094 145.106L148.615 168.676C151.502 168.123 154.396 167.481 157.248 166.785L151.555 143.47ZM143.98 145.128C142.012 145.526 140.039 145.895 138.061 146.235L142.133 169.887C144.337 169.508 146.536 169.097 148.729 168.654L143.98 145.128ZM114.144 148.95C112.141 149.061 110.136 149.144 108.129 149.198L108.772 173.189C111.009 173.129 113.244 173.037 115.477 172.913L114.144 148.95ZM118.846 167.187L123.289 159.483L102.497 147.495L98.055 155.199L118.846 167.187ZM141.058 128.666L145.5 120.961L124.709 108.973L120.267 116.677L141.058 128.666ZM134.159 126.93L140.596 127.439L142.487 103.513L136.05 103.005L134.159 126.93ZM166.343 129.473L172.78 129.982L174.671 106.056L168.234 105.548L166.343 129.473ZM164.43 125.608L167.724 129.643L186.316 114.466L183.021 110.43L164.43 125.608ZM180.901 145.784L184.195 149.819L202.787 134.641L199.492 130.606L180.901 145.784ZM137.46 47.8579L129.308 46.1161L124.294 69.5863L132.445 71.3281L137.46 47.8579ZM96.7012 39.1489L88.5494 37.4071L83.5346 60.8773L91.6863 62.6191L96.7012 39.1489ZM76.0908 55.8485L78.595 59.5643L98.4973 46.1518L95.9932 42.436L76.0908 55.8485ZM88.6116 74.4277L91.1158 78.1435L111.018 64.731L108.514 61.0151L88.6116 74.4277ZM97.7981 59.891L93.1259 61.2138L99.6636 84.3062L104.336 82.9834L97.7981 59.891ZM74.4369 66.5048L65.0924 69.1503L71.6301 92.2427L80.9746 89.5972L74.4369 66.5048ZM46.4034 74.4414L41.7312 75.7641L48.2688 98.8565L52.9411 97.5338L46.4034 74.4414ZM41.7341 98.8573L46.4063 100.179L52.9382 77.0848L48.2659 75.7633L41.7341 98.8573ZM65.0953 105.465L74.4398 108.108L80.9717 85.0138L71.6272 82.3708L65.0953 105.465ZM93.1288 113.394L97.801 114.715L104.333 91.6213L99.6607 90.2998L93.1288 113.394ZM91.1158 96.462L88.6116 100.178L108.514 113.59L111.018 109.875L91.1158 96.462ZM78.595 115.041L76.0908 118.757L95.9932 132.17L98.4973 128.454L78.595 115.041ZM88.5494 137.198L96.7012 135.457L91.6863 111.986L83.5345 113.728L88.5494 137.198ZM129.308 128.489L137.46 126.748L132.445 103.277L124.294 105.019L129.308 128.489ZM146.953 115.012V110.394H122.953V115.012H146.953ZM146.953 91.921V82.6845H122.953V91.921H146.953ZM146.953 64.2113V59.593H122.953V64.2113H146.953ZM145.789 109.465L143.463 105.065L122.246 116.282L124.571 120.681L145.789 109.465ZM134.16 87.4667L131.834 83.067L110.617 94.2833L112.942 98.683L134.16 87.4667ZM132.087 93.7777L134.412 88.8272L112.69 78.6221L110.364 83.5726L132.087 93.7777ZM143.716 69.025L146.041 64.0745L124.319 53.8694L121.993 58.8199L143.716 69.025ZM142.211 68.6965C143.903 67.4734 145.634 66.2773 147.402 65.1093L134.178 45.0814C132.129 46.4342 130.119 47.8232 128.149 49.2474L142.211 68.6965ZM169.626 52.865C173.452 51.1239 177.392 49.5001 181.437 48.0015L173.098 25.4968C168.519 27.1934 164.045 29.0366 159.687 31.0197L169.626 52.865ZM206.027 40.7654C210.168 39.8425 214.384 39.0438 218.667 38.3757L214.968 14.6625C210.177 15.4099 205.454 16.3044 200.807 17.3401L206.027 40.7654ZM244.328 36.0067C246.469 35.9417 248.622 35.9089 250.786 35.9089V11.9089C248.38 11.9089 245.984 11.9454 243.6 12.0177L244.328 36.0067ZM250.786 35.9089C252.512 35.9089 254.231 35.9298 255.943 35.9712L256.524 11.9782C254.618 11.9321 252.706 11.9089 250.786 11.9089V35.9089ZM276.486 37.4774C279.917 37.9008 283.309 38.4075 286.658 38.9944L290.8 15.3546C287.051 14.6976 283.258 14.1311 279.426 13.6581L276.486 37.4774ZM306.657 43.5814C309.969 44.5279 313.224 45.5554 316.418 46.6605L324.264 23.9792C320.654 22.7302 316.981 21.5711 313.252 20.5053L306.657 43.5814ZM335.279 54.4108C338.365 55.895 341.372 57.4562 344.295 59.0902L356.004 38.1404C352.647 36.2636 349.204 34.4764 345.681 32.7824L335.279 54.4108ZM361.237 70.0595C363.947 72.0862 366.551 74.1828 369.043 76.3439L384.766 58.2111C381.828 55.6636 378.773 53.205 375.611 50.8397L361.237 70.0595ZM382.988 90.4772C384.049 91.7436 385.075 93.0246 386.067 94.3193L405.12 79.7257C403.915 78.1521 402.671 76.6003 401.391 75.0712L382.988 90.4772ZM386.067 79.7257C385.075 81.0204 384.049 82.3014 382.988 83.5678L401.391 98.9738C402.671 97.4447 403.915 95.8929 405.12 94.3193L386.067 79.7257ZM369.043 97.7011C366.551 99.8622 363.947 101.959 361.237 103.985L375.611 123.205C378.773 120.84 381.828 118.381 384.766 115.834L369.043 97.7011ZM344.295 114.955C341.372 116.589 338.365 118.15 335.279 119.634L345.681 141.263C349.204 139.569 352.647 137.781 356.004 135.905L344.295 114.955ZM316.418 127.385C313.224 128.49 309.969 129.517 306.657 130.464L313.252 153.54C316.981 152.474 320.654 151.315 324.264 150.066L316.418 127.385ZM286.658 135.051C283.309 135.637 279.917 136.144 276.486 136.568L279.426 160.387C283.258 159.914 287.051 159.347 290.8 158.69L286.658 135.051ZM255.943 138.074C254.231 138.115 252.512 138.136 250.786 138.136V162.136C252.706 162.136 254.618 162.113 256.524 162.067L255.943 138.074ZM250.786 138.136C248.622 138.136 246.469 138.103 244.328 138.038L243.601 162.027C245.984 162.1 248.38 162.136 250.786 162.136V138.136ZM218.665 135.671C214.382 135.004 210.166 134.205 206.025 133.283L200.807 156.709C205.454 157.744 210.177 158.638 214.968 159.385L218.665 135.671ZM181.434 126.049C177.39 124.551 173.45 122.927 169.623 121.186L159.683 143.031C164.042 145.014 168.517 146.857 173.096 148.554L181.434 126.049ZM147.404 108.939C145.636 107.771 143.905 106.574 142.214 105.351L128.146 124.795C130.116 126.22 132.126 127.61 134.174 128.964L147.404 108.939Z" fill="#EDEDEE" mask="url(#path-1-outside-1_1916_22585)"/>
</g>
</svg>
