<svg width="441" height="132" viewBox="0 0 441 132" fill="none" xmlns="http://www.w3.org/2000/svg">
<g opacity="0.2">
<mask id="path-1-outside-1_4479_32403" maskUnits="userSpaceOnUse" x="-1" y="0" width="442" height="132" fill="black">
<rect fill="white" x="-1" width="442" height="132"/>
<path d="M398.331 68.1328H428.089V64L398.368 64C396.785 58.5699 390.614 47.7452 366.449 42.9193C333.475 36.3223 226.941 37.8544 226.941 37.8544C226.941 37.8544 160.488 11.5025 117.864 12.0072C75.2395 12.5118 58.5 19.0908 58.5 19.0908V24.4048L28.5 32.5L32.5 36.5L12 47.5H58.5V58.6368L63.2218 61.0075L33.5 65L65.5831 69.7885L58.5 73.3449V83L12 83L32.5 94L28.5 98L58.5 106.095V112.891C58.5 112.891 75.2395 119.488 117.864 119.993C160.488 120.497 226.941 94.1452 226.941 94.1452C226.941 94.1452 333.475 95.6593 366.449 89.0803C390.418 84.2936 396.7 73.6049 398.331 68.1328Z"/>
</mask>
<path d="M398.331 68.1328H428.089V64L398.368 64C396.785 58.5699 390.614 47.7452 366.449 42.9193C333.475 36.3223 226.941 37.8544 226.941 37.8544C226.941 37.8544 160.488 11.5025 117.864 12.0072C75.2395 12.5118 58.5 19.0908 58.5 19.0908V24.4048L28.5 32.5L32.5 36.5L12 47.5H58.5V58.6368L63.2218 61.0075L33.5 65L65.5831 69.7885L58.5 73.3449V83L12 83L32.5 94L28.5 98L58.5 106.095V112.891C58.5 112.891 75.2395 119.488 117.864 119.993C160.488 120.497 226.941 94.1452 226.941 94.1452C226.941 94.1452 333.475 95.6593 366.449 89.0803C390.418 84.2936 396.7 73.6049 398.331 68.1328Z" stroke="#EDEDEE" stroke-width="24" stroke-linecap="round" stroke-linejoin="round" stroke-dasharray="12 24" mask="url(#path-1-outside-1_4479_32403)"/>
</g>
</svg>
