<svg width="301" height="208" viewBox="0 0 301 208" fill="none" xmlns="http://www.w3.org/2000/svg">
<path d="M105.189 131.017C105.189 131.017 96.1621 144.793 83.6016 151.438C72.0054 157.556 56.0897 160.862 55.5711 160.652C55.2466 156.798 55.8785 152.923 57.4106 149.372C59.2902 145.5 61.52 141.808 64.0719 138.343C64.0719 138.343 47.7676 134.898 37.4275 131.908C27.8491 129.145 14 120.677 14 120.677C14 120.677 25.4825 108.943 38.116 103.886C50.7494 98.8298 58.0995 97.4522 58.0995 97.4522C58.0995 97.4522 50.2875 91.026 46.3897 86.4313C42.4919 81.8366 37.2004 72.8982 37.2004 72.8982C37.2004 72.8982 48.6832 70.5806 56.495 71.2775C64.3068 71.9744 70.7328 72.6552 70.7328 72.6552C69.2437 69.5327 68.2384 66.202 67.751 62.7771C67.1919 59.2878 67.1919 55.7317 67.751 52.2424C76.4859 54.733 84.6691 58.8577 91.867 64.3978C103.35 73.1253 105.424 78.1738 105.424 78.1738L105.189 131.017Z" fill="#C7AC5E"/>
<path d="M104.379 129.866C104.379 129.866 94.5007 135.814 86.0081 137.16C77.5156 138.505 73.8528 138.537 73.8528 138.537C73.8528 138.537 76.3813 129.575 78.9096 125.904C81.4379 122.233 83.9581 118.781 83.9581 118.781C83.9581 118.781 74.0877 121.309 66.0408 119.931C57.994 118.554 46.2928 114.186 46.2928 114.186C46.2928 114.186 58.2372 100.864 66.7297 97.8816C75.2223 94.8994 77.2644 94.8914 77.2644 94.8914C74.2238 93.5235 71.431 91.6617 68.999 89.3811C65.555 85.9371 63.2533 78.1252 63.2533 78.1252C63.2533 78.1252 78.1883 73.0687 88.7553 74.2194C99.3224 75.3701 104.606 76.9745 104.606 76.9745L104.379 129.866Z" fill="#B18340"/>
<path d="M207.303 166.105C241.767 165.919 265.194 117.881 265.194 103.748C265.194 89.6156 241.767 41.5696 207.303 41.3508L101.146 41.3508L101.146 166.089L207.303 166.089L207.303 166.105Z" fill="#C3A4D7"/>
<path d="M163.905 195.667L180.112 165.473L101.548 165.473L85.3406 195.667L163.905 195.667Z" fill="#D9BAED"/>
<path d="M163.165 12L179.373 42.1858L100.809 42.1858L84.6014 12L163.165 12Z" fill="#D5B6E9"/>
<path d="M288.16 105.807L288.16 101.674L249.571 101.674L249.571 105.807L288.16 105.807Z" fill="#C3A4D7"/>
<path d="M131.777 103.854C131.777 126.562 150.186 144.971 172.895 144.971C195.603 144.971 214.012 126.562 214.012 103.854C214.012 81.1452 195.603 62.7363 172.895 62.7363C150.186 62.7363 131.777 81.1452 131.777 103.854Z" fill="#EDEDEE"/>
<path d="M176.285 129.788C177.209 129.26 177.473 128.204 177.473 127.148L177.473 124.508C177.539 122.594 177.605 120.614 177.605 119.492C177.605 117.842 177.539 116.192 177.605 114.872C177.671 113.288 177.539 111.77 177.605 110.318C177.605 107.876 177.737 106.754 177.737 105.896C177.737 105.368 177.671 104.972 177.671 104.708C177.671 104.048 177.605 103.52 177.605 102.992C177.605 102.464 177.605 101.936 177.671 101.408C177.737 100.484 177.737 99.5605 177.737 98.7025C177.737 96.8545 177.671 95.1385 177.671 93.3565C177.671 92.3005 177.737 91.3105 177.737 90.2545L177.737 89.2645C177.737 88.1425 177.737 87.0205 177.803 85.9645C177.803 85.4365 177.869 84.8425 177.869 84.2485C177.869 83.8525 178.067 83.1925 178.067 82.6645C178.067 82.0045 177.341 81.1465 177.209 81.0805C176.681 80.8165 176.153 80.7505 175.757 80.7505C175.229 80.7505 174.767 80.8165 174.503 80.8825C173.909 80.9485 173.315 81.0145 172.721 81.0145C172.655 81.0145 172.325 80.8825 171.797 80.8825C171.335 80.8825 171.071 80.9485 170.873 80.9485C169.421 80.8165 167.045 80.9485 167.045 82.8625C167.045 84.1825 168.629 84.8425 170.213 84.8425C170.477 84.8425 170.741 84.8425 171.005 84.7765C171.731 84.7765 173.249 84.7105 173.975 84.6445C173.975 85.0405 173.975 85.4365 173.909 86.0305C173.909 87.0865 173.909 88.4065 173.777 89.1325L173.777 89.8585C173.777 90.6505 173.711 91.4425 173.711 92.2345L173.711 93.5545L173.777 100.88C173.777 102.2 173.843 103.586 173.843 104.972C173.843 107.018 173.843 108.734 173.777 110.78C173.777 111.638 173.843 112.694 173.777 113.42L173.579 115.73C173.513 117.05 173.579 118.238 173.579 119.36C173.579 119.822 173.579 120.284 173.513 120.68C173.447 122.066 173.447 123.122 173.447 124.112C173.447 125.102 173.447 126.092 173.183 127.544C173.183 127.676 172.985 128.798 173.315 129.26C173.711 129.788 174.437 130.118 175.163 130.118C175.559 130.118 175.955 130.052 176.285 129.788Z" fill="#6B6C6F"/>
</svg>
