<svg width="371" height="217" viewBox="0 0 371 217" fill="none" xmlns="http://www.w3.org/2000/svg">
<path d="M103.189 140.775C103.189 140.775 94.1621 154.55 81.6016 161.195C70.0054 167.314 54.0897 170.62 53.5711 170.409C53.2467 166.555 53.8785 162.681 55.4106 159.129C57.2902 155.257 59.52 151.566 62.0719 148.1C62.0719 148.1 45.7677 144.656 35.4275 141.666C25.8491 138.902 12 130.434 12 130.434C12 130.434 23.4826 118.701 36.116 113.644C48.7495 108.587 56.0995 107.21 56.0995 107.21C56.0995 107.21 48.2875 100.784 44.3897 96.1889C40.4919 91.5941 35.2004 82.6558 35.2004 82.6558C35.2004 82.6558 46.6832 80.3381 54.495 81.0351C62.3069 81.732 68.7328 82.4128 68.7328 82.4128C67.2437 79.2903 66.2384 75.9595 65.751 72.5346C65.192 69.0453 65.192 65.4893 65.751 62C74.4859 64.4906 82.6691 68.6152 89.867 74.1553C101.35 82.8829 103.424 87.9314 103.424 87.9314L103.189 140.775Z" fill="#C7AC5E"/>
<path d="M102.379 139.624C102.379 139.624 92.5006 145.572 84.008 146.917C75.5155 148.262 71.8527 148.295 71.8527 148.295C71.8527 148.295 74.3812 139.332 76.9095 135.661C79.4378 131.99 81.958 128.538 81.958 128.538C81.958 128.538 72.0876 131.066 64.0408 129.689C55.9939 128.311 44.2927 123.944 44.2927 123.944C44.2927 123.944 56.2371 110.621 64.7296 107.639C73.2222 104.657 75.2643 104.649 75.2643 104.649C72.2237 103.281 69.431 101.419 66.9989 99.1387C63.5549 95.6947 61.2532 87.8827 61.2532 87.8827C61.2532 87.8827 76.1882 82.8263 86.7553 83.977C97.3223 85.1277 102.606 86.7321 102.606 86.7321L102.379 139.624Z" fill="#B18340"/>
<path d="M176.146 51.122L151.848 16.6049L86.0627 13L109.404 48.4904L176.146 51.122Z" fill="#A39DD5"/>
<path d="M216.948 57.2864C134.766 43.2092 109.404 47.6072 109.404 47.6072C109.404 47.6072 101.792 59.0348 98.7436 74.4278C95.6952 89.8208 95.1901 108.296 95.1901 108.296C95.1901 108.296 95.6952 126.771 98.7436 142.164C101.792 157.557 109.404 168.985 109.404 168.985C109.404 168.985 134.766 173.383 216.948 159.306C299.131 145.228 359 108.296 359 108.296C359 108.296 299.131 71.3636 216.948 57.2864Z" fill="#8F89C2"/>
<path d="M175.1 165.614L151.524 200.474L86.0627 203.61L109.404 168.12L175.1 165.614Z" fill="#A39DD5"/>
<path d="M136 108.531C136 130.364 153.716 148.063 175.571 148.063C197.426 148.063 215.142 130.364 215.142 108.531C215.142 86.6987 197.426 69 175.571 69C153.716 69 136 86.6987 136 108.531Z" fill="#EDEDEE"/>
<path d="M181.496 134.736C181.892 134.868 182.288 135 182.684 135C183.212 135 183.674 134.868 184.07 134.538C184.598 134.076 184.73 133.548 184.73 132.888C184.73 132.294 184.598 131.964 184.598 131.898V130.644C184.598 129.984 184.532 129.522 184.532 129.192C184.532 127.344 184.598 125.562 184.532 123.714V117.114C184.532 116.454 184.598 115.596 184.532 114.804C184.532 113.616 184.466 112.428 184.466 111.372L184.4 109.062C184.4 108.996 184.532 107.016 184.532 106.554C184.598 105.96 184.532 105.432 184.532 105.102C184.532 104.442 184.664 103.584 184.664 102.66C184.73 101.01 184.598 99.36 184.598 97.776C184.598 96.06 184.664 94.278 184.664 92.562C184.664 90.912 184.664 89.394 184.862 87.744C184.796 86.622 183.938 85.962 182.948 85.962C182.486 85.962 181.958 86.16 181.562 86.49C181.034 86.952 180.968 88.404 180.968 88.602C181.034 90.318 180.836 92.034 180.902 93.552C180.902 93.684 180.836 94.014 180.836 94.476C180.77 95.598 180.77 96.654 180.77 97.71C180.77 99.492 180.836 101.208 180.77 102.858C180.704 104.772 180.572 106.686 180.506 108.6C180.308 108.6 179.978 108.6 179.648 108.666C179.054 108.666 178.592 108.798 178.394 108.798C177.206 108.798 175.82 108.6 174.434 108.666H172.388C171.728 108.666 171.134 108.666 170.474 108.6C170.408 108.6 170.276 108.6 170.21 108.534C170.21 108.27 170.276 107.874 170.21 107.346C170.21 106.488 170.144 105.63 170.144 104.772C170.144 103.122 170.144 101.472 170.078 99.822C170.012 98.832 170.012 97.842 170.012 96.786C170.012 94.74 170.078 92.562 170.078 90.516C170.078 87.942 169.814 85.698 167.24 86.028C166.316 86.292 166.118 87.546 166.118 88.272C166.118 89.328 166.25 90.912 166.184 92.034C166.184 92.166 166.25 92.298 166.25 92.364C166.184 93.75 166.184 95.202 166.184 96.588C166.184 100.746 166.382 104.904 166.316 108.666C166.25 108.864 166.184 108.996 166.184 109.26C166.118 109.458 166.118 109.656 166.118 109.92C166.118 110.646 166.382 111.372 166.976 111.834C167.438 112.164 168.296 112.296 169.088 112.296C169.946 112.296 170.804 112.164 170.936 112.164C171.926 112.23 172.982 112.164 173.84 112.164C174.368 112.164 174.896 112.164 175.292 112.23L177.206 112.296C178.064 112.362 178.922 112.296 179.582 112.296C179.978 112.362 180.374 112.362 180.638 112.362C180.704 112.824 180.638 113.418 180.704 113.88V118.17C180.638 118.83 180.638 119.82 180.704 120.414L180.638 121.338C180.704 123.78 180.704 125.496 180.704 127.608C180.704 128.268 180.572 129.06 180.572 129.852C180.572 130.71 180.572 131.634 180.704 132.756C180.704 133.482 180.704 134.208 181.496 134.736Z" fill="#6B6C6F"/>
</svg>
