<svg width="440" height="132" viewBox="0 0 440 132" fill="none" xmlns="http://www.w3.org/2000/svg">
<path d="M28.5 32.5L60 24V47.5H12L32.5 36.5L28.5 32.5Z" fill="#C7AC5E"/>
<path d="M47.2812 31.5957L75.5 24V45H32.5L50.8646 35.1702L47.2812 31.5957Z" fill="#B18340"/>
<path d="M28.5 98L60 106.5L60 83L12 83L32.5 94L28.5 98Z" fill="#C7AC5E"/>
<path d="M47.9375 99.4043L75.5 107L75.5 86L33.5 86L51.4375 95.8298L47.9375 99.4043Z" fill="#B18340"/>
<path d="M428.089 68.1328L428.089 64L389.5 64L389.5 68.1328L428.089 68.1328Z" fill="#6AB37A"/>
<path d="M398.918 64.7111H398.558C397.313 59.574 391.721 47.9662 366.449 42.9193C333.475 36.3223 226.941 37.8544 226.941 37.8544C226.941 37.8544 160.488 11.5025 117.864 12.0072C75.2395 12.5118 58.5 19.0908 58.5 19.0908V58.6368L73.1471 65.9908L58.5 73.3449V112.891C58.5 112.891 75.2395 119.488 117.864 119.993C160.488 120.497 226.941 94.1452 226.941 94.1452C226.941 94.1452 333.475 95.6593 366.449 89.0803C391.721 84.0334 397.331 72.4256 398.558 67.2886H398.918C398.918 67.2886 398.918 66.82 398.81 66.0269C398.918 65.2158 398.918 64.7471 398.918 64.7471V64.7111Z" fill="#6AB37A"/>
<path d="M238.5 65.5C238.5 74.6127 245.887 82 255 82C264.113 82 271.5 74.6127 271.5 65.5C271.5 56.3873 264.113 49 255 49C245.887 49 238.5 56.3873 238.5 65.5Z" fill="#EDEDEE"/>
<path d="M282.5 65.5C282.5 74.6127 289.887 82 299 82C308.113 82 315.5 74.6127 315.5 65.5C315.5 56.3873 308.113 49 299 49C289.887 49 282.5 56.3873 282.5 65.5Z" fill="#EDEDEE"/>
<path d="M325.5 65.5C325.5 74.6127 332.887 82 342 82C351.113 82 358.5 74.6127 358.5 65.5C358.5 56.3873 351.113 49 342 49C332.887 49 325.5 56.3873 325.5 65.5Z" fill="#EDEDEE"/>
<path d="M63.5 56.5L75.5 55V65.5L33.5 65L67 60.5L63.5 56.5Z" fill="#C7AC5E"/>
<path d="M80.5 56.5L92.5 55V65.5L50.5 65L84 60.5L80.5 56.5Z" fill="#B18340"/>
<path d="M63.5 74L75.5 75.5L75.5 65L33.5 65L67 70L63.5 74Z" fill="#C7AC5E"/>
<path d="M80.5 74L92.5 75.5L92.5 65L50.5 65L84 70L80.5 74Z" fill="#B18340"/>
<path d="M114.5 66.5313C114.5 88.3638 132.217 106.063 154.071 106.063C175.926 106.063 193.643 88.3638 193.643 66.5313C193.643 44.6987 175.926 27 154.071 27C132.217 27 114.5 44.6987 114.5 66.5313Z" fill="#EDEDEE"/>
<path d="M138.5 66.4455H138.438C137.484 65.2284 124.447 49.024 107.897 45.5906C90.7034 42.0118 73.7902 45.5906 73.7902 45.5906L73.5311 65.2102H73.5L73.5207 66.5L73.5 67.7898H73.5311L73.7902 87.4094C73.7902 87.4094 90.6931 90.9882 107.897 87.4094C124.447 83.9578 137.484 67.7535 138.438 66.5545H138.5L138.469 66.5182L138.5 66.4818V66.4455Z" fill="#7DC68D"/>
<path d="M151.402 92.528C152.26 92.594 152.986 92.66 153.778 92.66C154.834 92.66 155.89 92.594 157.012 92.462C158.53 92.264 160.246 92.33 162.094 91.736L163.81 91.208C164.008 91.142 164.404 91.01 164.668 90.878C165.328 90.548 165.922 90.152 166.516 89.492C166.78 89.228 167.176 88.7 167.44 88.304L168.034 87.314C168.562 86.456 168.76 85.664 168.958 85.004C169.156 84.542 169.222 84.146 169.354 83.75C169.42 83.354 169.552 82.958 169.618 82.496C169.684 82.166 169.684 81.836 169.684 81.506C169.75 81.308 169.948 79.13 169.948 78.866C170.014 78.008 169.948 77.15 169.948 76.226C169.948 75.632 169.75 75.104 169.684 74.906C169.618 74.642 169.618 74.18 169.486 73.718C169.288 72.992 169.024 72.2 168.694 71.474C168.364 71.012 167.968 70.352 167.572 69.89C167.308 69.56 166.912 69.098 166.648 68.834L165.13 67.58C164.8 67.184 164.404 66.986 164.206 66.854C163.48 66.326 162.622 65.93 162.094 65.732C161.368 65.402 161.17 65.402 160.972 65.336C160.708 65.402 159.586 64.808 158.794 64.61L157.738 64.346C156.946 64.148 156.022 64.082 155.296 64.016C154.9 63.95 154.504 63.95 154.174 63.95C153.382 63.884 152.656 63.818 151.864 63.818C151.27 63.818 150.742 63.884 150.148 63.884C149.95 63.884 149.818 63.95 149.62 63.95C149.686 62.696 149.554 62.102 149.554 60.98C149.554 60.386 149.62 59.594 149.62 58.802C149.62 57.746 149.488 56.69 149.488 55.568C149.488 55.106 149.422 54.776 149.422 54.578C149.422 54.38 149.488 54.116 149.488 53.654C149.488 51.674 149.488 49.958 149.422 47.978C149.422 47.648 149.422 47.384 149.356 47.252H152.59L157.408 47.318C158.926 47.318 160.51 47.12 162.16 47.12C162.952 47.12 163.744 47.186 164.536 47.186H165.724C165.988 47.186 166.384 47.252 166.912 47.252C167.572 47.252 169.288 47.384 169.948 47.186C170.212 47.186 170.476 47.12 170.674 47.054C171.334 46.724 171.598 46.13 171.598 45.536C171.598 44.612 170.872 43.622 169.882 43.424C169.486 43.292 169.156 43.292 168.826 43.292C168.232 43.292 167.77 43.424 167.704 43.358C167.572 43.424 167.308 43.358 166.648 43.358H161.896C161.17 43.358 160.444 43.424 159.784 43.424H155.56C154.834 43.424 154.174 43.49 153.58 43.424H150.346C150.148 43.358 149.752 43.358 149.686 43.358C149.29 43.424 147.64 43.358 147.244 43.358C146.452 43.358 145.594 43.952 145.264 44.678C145.132 44.942 145.066 45.272 145.066 45.47C145.066 46.064 145.33 46.46 145.396 46.856C145.462 47.186 145.462 47.516 145.462 47.978C145.528 49.364 145.396 50.486 145.396 51.806C145.396 53.192 145.462 54.644 145.462 56.03C145.528 57.482 145.726 58.736 145.726 59.924C145.66 61.31 145.66 62.828 145.66 64.148C145.528 64.61 145.594 65.204 145.462 65.27C145.462 65.402 145.264 66.788 145.792 67.382C146.122 67.844 146.65 68.438 147.442 68.438C148.498 68.57 149.224 68.108 149.752 68.042C150.544 67.778 151.468 67.646 152.392 67.646C153.184 67.646 153.976 67.778 154.702 67.91L156.814 68.306C157.672 68.438 158.266 68.504 158.926 68.702C159.718 68.966 160.312 69.032 160.774 69.296C161.104 69.428 161.566 69.824 161.962 70.088C162.16 70.286 162.952 70.748 163.414 71.276C163.48 71.342 163.612 71.54 163.876 71.738C164.14 72.134 164.47 72.332 164.536 72.53C164.866 72.992 165.064 73.52 165.328 74.246L165.592 74.906C165.79 75.302 165.79 75.434 165.79 75.566V75.83C165.988 76.82 166.12 77.546 166.12 77.942C166.12 78.668 165.988 79.46 165.856 80.384C165.79 81.242 165.724 82.1 165.526 82.694C164.998 84.212 164.8 85.136 164.272 86.126C163.81 86.72 163.942 86.72 163.81 86.786C163.348 87.116 163.018 87.578 162.886 87.71C162.622 87.776 162.292 87.908 162.028 88.04C161.236 88.238 160.048 88.37 158.794 88.568C157.936 88.634 157.012 88.832 156.22 88.964C155.494 89.03 154.834 89.096 154.108 89.096C153.514 89.096 152.92 89.03 152.392 88.898L151.204 88.568C150.544 88.37 150.412 88.37 150.28 88.304C149.686 88.04 149.29 87.908 149.092 87.842C148.696 87.578 148.234 87.446 147.772 87.446C146.65 87.446 145.528 88.304 145.528 89.426C145.528 90.416 146.32 90.878 146.65 91.142C147.31 91.538 147.838 91.67 147.706 91.538C148.036 91.736 148.498 91.868 148.63 91.934C149.224 92 149.62 92 149.95 92.132C150.61 92.33 151.072 92.396 151.402 92.528Z" fill="#6B6C6F"/>
</svg>
