<svg width="371" height="217" viewBox="0 0 371 217" fill="none" xmlns="http://www.w3.org/2000/svg">
<path opacity="0.2" d="M359 108.296C362.15 103.189 362.15 103.189 362.15 103.189L362.149 103.189L362.148 103.188L362.145 103.187L362.138 103.182L362.115 103.168L362.037 103.12C362.007 103.102 361.972 103.08 361.93 103.055C361.879 103.024 361.818 102.988 361.749 102.946C361.5 102.795 361.136 102.577 360.66 102.297C359.709 101.737 358.311 100.928 356.494 99.9109C353.602 98.293 349.946 99.3257 348.328 102.218C348.318 102.236 348.308 102.254 348.298 102.272C345.033 100.529 341.065 98.4812 336.456 96.2257C336.462 96.213 336.468 96.2003 336.474 96.1876C337.888 93.1908 336.605 89.615 333.608 88.2008C330.016 86.5055 326.12 84.7267 321.941 82.8979C318.905 81.5693 315.368 82.9533 314.039 85.989C314.034 86.001 314.028 86.013 314.023 86.025C310.133 84.3827 306.027 82.7124 301.721 81.0377C301.726 81.0257 301.73 81.0136 301.735 81.0016C302.896 77.898 301.322 74.4407 298.218 73.2794C294.341 71.8289 290.321 70.3825 286.165 68.9552C283.031 67.8789 279.618 69.5469 278.542 72.6809C278.537 72.6932 278.533 72.7056 278.529 72.7179C274.418 71.3658 270.186 70.0381 265.84 68.7485C265.844 68.7355 265.847 68.7225 265.851 68.7095C266.751 65.5203 264.895 62.2055 261.706 61.3057C257.668 60.1665 253.541 59.063 249.329 58.0053C246.116 57.198 242.856 59.149 242.049 62.3629C242.045 62.3765 242.042 62.3901 242.039 62.4037C237.792 61.4002 233.466 60.4471 229.066 59.5543C229.069 59.5398 229.072 59.5252 229.075 59.5107C229.686 56.2538 227.541 53.1182 224.284 52.5072C222.192 52.1147 220.084 51.7361 217.961 51.3725C215.644 50.9756 213.371 50.5932 211.142 50.2248C207.873 49.6846 204.785 51.8969 204.244 55.1663C204.244 55.1716 204.243 55.1769 204.242 55.1822C198.858 54.3226 193.749 53.549 188.905 52.8536C188.906 52.8467 188.907 52.8398 188.908 52.8329C189.356 49.5496 187.058 46.5246 183.775 46.0763C182.336 45.8798 180.921 45.6905 179.531 45.5081L177.001 41.9132C175.094 39.2035 171.351 38.5532 168.641 40.4606L159.351 27.2636C162.061 25.3562 162.711 21.6133 160.804 18.9036L156.755 13.1512C155.697 11.6493 154.01 10.7144 152.177 10.6139L146.694 10.3135C143.386 10.1322 140.556 12.6675 140.375 15.9762L130.429 15.4312C130.61 12.1224 128.075 9.29317 124.766 9.11186L113.802 8.51104C110.493 8.32973 107.664 10.865 107.482 14.1738L97.5358 13.6287C97.7171 10.32 95.1818 7.49071 91.8731 7.3094L86.3909 7.00899C84.1293 6.88505 81.9905 8.04534 80.8614 10.0089C79.7322 11.9724 79.805 14.4045 81.0497 16.297L84.8921 22.1394C86.713 24.908 90.4335 25.6763 93.2021 23.8554L101.978 37.1991C99.2094 39.0199 98.4411 42.7404 100.262 45.509L102.062 48.2459C101.869 48.5976 101.668 48.9707 101.46 49.3643C99.9102 52.2934 101.029 55.924 103.958 57.4734C104.021 57.5068 104.084 57.5389 104.148 57.5699C103.288 59.5151 102.408 61.6961 101.581 64.068C101.509 64.0457 101.436 64.0248 101.362 64.0051C98.1599 63.1525 94.8728 65.0572 94.0202 68.2593C93.9087 68.6781 93.7997 69.1009 93.6934 69.5276C93.6333 69.4818 93.5731 69.4358 93.5126 69.3899C92.2193 68.3949 90.8968 67.4422 89.547 66.5326C86.7989 64.6809 83.0701 65.4075 81.2183 68.1556C81.1714 68.2252 81.1262 68.2954 81.0826 68.3663C79.3047 67.3732 77.4855 66.4563 75.6298 65.6178C75.6608 65.5407 75.6903 65.4625 75.7184 65.3834C76.8259 62.2602 75.192 58.8306 72.0688 57.723C70.5293 57.177 68.971 56.679 67.3962 56.23C65.7466 55.7596 63.9747 56.0178 62.5279 56.9392C61.0811 57.8606 60.0979 59.3572 59.8265 61.0509C59.7167 61.7364 59.6251 62.4241 59.5519 63.1133C59.3887 64.648 59.8194 66.1089 60.6591 67.2673C59.8194 68.4257 59.3887 69.8866 59.5519 71.4213C59.6233 72.0932 59.7121 72.7636 59.8183 73.432C59.9121 74.085 60.0219 74.735 60.1475 75.3816C60.2188 75.7484 60.3222 76.1009 60.454 76.4368C59.598 75.7982 58.5609 75.3802 57.4196 75.2754C56.6414 75.2039 55.8424 75.1314 55.0282 75.0588C53.7876 74.9481 52.516 74.904 51.2618 74.9044C47.9481 74.9054 45.2626 77.5925 45.2636 80.9062C45.2636 81.0087 45.2662 81.1106 45.2713 81.2118C44.9547 81.2412 44.6407 81.2722 44.33 81.3043C44.3229 81.2511 44.3151 81.1979 44.3065 81.1446C43.782 77.8726 40.7044 75.6454 37.4325 76.1699C36.4111 76.3336 35.5707 76.4819 34.9796 76.5904C34.6838 76.6447 34.4498 76.6891 34.2861 76.7208C34.2456 76.7286 34.2093 76.7357 34.1775 76.7419C34.145 76.7482 34.1172 76.7537 34.094 76.7583L34.0394 76.7691L34.0227 76.7725L34.0171 76.7736L34.015 76.774L34.0141 76.7742L34.0137 76.7743C34.0135 76.7743 34.0133 76.7744 35.2004 82.6558M359 108.296C362.15 113.403 362.15 113.403 362.15 113.403L362.149 113.403L362.148 113.404L362.145 113.405L362.138 113.41L362.115 113.424L362.037 113.472C361.996 113.497 361.944 113.528 361.882 113.566C361.842 113.59 361.798 113.617 361.749 113.646C361.653 113.704 361.54 113.772 361.41 113.85C361.202 113.974 360.952 114.123 360.66 114.295C359.709 114.855 358.311 115.664 356.494 116.681C353.602 118.299 349.946 117.266 348.328 114.374C348.318 114.356 348.308 114.338 348.298 114.32C345.033 116.063 341.065 118.111 336.456 120.366C336.462 120.379 336.468 120.392 336.474 120.404C337.888 123.401 336.605 126.977 333.608 128.391C330.016 130.086 326.12 131.865 321.941 133.694C318.905 135.023 315.368 133.639 314.039 130.603C314.034 130.591 314.028 130.579 314.023 130.567C310.133 132.209 306.027 133.88 301.721 135.554C301.726 135.566 301.73 135.578 301.735 135.59C302.896 138.694 301.322 142.151 298.218 143.313C294.341 144.763 290.321 146.209 286.165 147.637C283.031 148.713 279.618 147.045 278.542 143.911C278.537 143.899 278.533 143.886 278.529 143.874C274.418 145.226 270.186 146.554 265.84 147.844C265.844 147.856 265.847 147.869 265.851 147.882C266.751 151.072 264.895 154.386 261.706 155.286C257.668 156.425 253.541 157.529 249.329 158.587C246.116 159.394 242.856 157.443 242.049 154.229C242.045 154.215 242.042 154.202 242.039 154.188C237.792 155.192 233.466 156.145 229.066 157.038C229.069 157.052 229.072 157.067 229.075 157.081C229.686 160.338 227.541 163.474 224.284 164.085C222.192 164.477 220.084 164.856 217.961 165.219C215.578 165.628 213.242 166.021 210.952 166.399C207.682 166.938 204.594 164.726 204.054 161.456C204.054 161.451 204.053 161.445 204.052 161.44C198.384 162.344 193.022 163.152 187.953 163.875C187.954 163.882 187.955 163.889 187.956 163.895C188.4 167.179 186.099 170.202 182.815 170.646C181.371 170.842 179.952 171.03 178.558 171.211L176.14 174.786C174.284 177.53 170.554 178.251 167.809 176.394L158.814 189.694C161.559 191.55 162.279 195.28 160.423 198.025L156.494 203.835C155.434 205.401 153.699 206.376 151.811 206.467L146.356 206.728C143.046 206.887 140.234 204.332 140.075 201.022L130.241 201.493C130.4 204.803 127.845 207.615 124.535 207.774L113.625 208.296C110.315 208.455 107.503 205.9 107.345 202.59L97.5108 203.062C97.6694 206.372 95.1148 209.183 91.8048 209.342L86.3498 209.603C84.0947 209.711 81.9699 208.544 80.8511 206.583C79.7324 204.622 79.8091 202.199 81.0497 200.313L84.8931 194.469C86.714 191.701 90.4344 190.932 93.203 192.753L101.983 179.404C99.2143 177.583 98.446 173.862 100.267 171.094L102.067 168.356C101.969 168.177 101.869 167.992 101.766 167.802C100.195 164.885 101.285 161.246 104.203 159.674C104.266 159.64 104.331 159.607 104.395 159.575C103.806 158.268 103.204 156.847 102.614 155.327C102.546 155.351 102.476 155.374 102.406 155.395C100.622 155.944 98.7782 155.62 97.3335 154.666C95.7738 154.769 94.1757 154.266 92.9227 153.137C92.8642 153.084 92.8069 153.03 92.751 152.976C91.8254 153.851 90.85 154.723 89.8298 155.576C89.9006 155.671 89.9691 155.769 90.0351 155.869C91.8557 158.638 91.087 162.358 88.3183 164.179C87.0687 165 85.7636 165.781 84.4073 166.499L84.4014 166.502C82.8237 167.334 81.1945 168.109 79.5579 168.826C76.5225 170.155 72.9842 168.772 71.6548 165.736C71.6277 165.674 71.6016 165.612 71.5767 165.55C69.0198 166.479 66.5066 167.281 64.2064 167.952C64.2197 168.002 64.2323 168.052 64.2443 168.103C65.0125 171.326 63.0223 174.562 59.7988 175.33C58.3173 175.683 57.0456 175.953 56.0822 176.13C55.6108 176.217 55.1493 176.293 54.7456 176.344C54.5551 176.368 54.2803 176.398 53.9799 176.411C53.835 176.418 53.5826 176.425 53.2781 176.408L53.2627 176.407C53.0873 176.397 52.2583 176.352 51.3128 175.968C49.2198 175.118 47.7818 173.164 47.5922 170.913C47.5246 170.108 47.49 169.304 47.4883 168.5C47.4845 166.69 48.2825 165.066 49.5474 163.963C48.6983 162.516 48.4578 160.722 49.0364 159.007C49.2933 158.246 49.5818 157.493 49.9014 156.752C49.9368 156.67 49.974 156.589 50.0131 156.509C50.3528 155.809 50.7031 155.114 51.0638 154.426C51.695 153.22 52.6783 152.319 53.8214 151.781C52.1218 150.393 51.2487 148.12 51.756 145.832C51.758 145.823 51.7601 145.814 51.7621 145.805C49.8254 145.356 47.7467 144.865 45.6476 144.351C45.6428 144.37 45.6379 144.389 45.633 144.407C44.788 147.612 41.5055 149.524 38.3013 148.679C36.73 148.265 35.1986 147.845 33.7644 147.431C32.2449 146.992 30.6864 146.447 29.1483 145.847C26.0606 144.645 24.5326 141.166 25.7354 138.079C25.7629 138.008 25.7915 137.939 25.8212 137.87C24.1615 137.088 22.5357 136.274 21.0156 135.483C20.9993 135.512 20.9828 135.542 20.9661 135.572C19.3348 138.456 15.6741 139.472 12.7898 137.841C11.6067 137.172 10.6372 136.606 9.95926 136.205C9.62008 136.005 9.35332 135.845 9.16866 135.734C9.07631 135.678 9.00445 135.635 8.95429 135.604L8.89545 135.569L8.8785 135.558L8.87319 135.555L8.87134 135.554L8.87061 135.554L8.8703 135.553C8.87015 135.553 8.87002 135.553 12 130.434M359 108.296L362.15 103.189C363.921 104.282 365 106.215 365 108.296C365 110.377 363.921 112.31 362.15 113.403L359 108.296ZM12 130.434C7.71171 126.238 7.71195 126.238 7.71219 126.237L7.71271 126.237L7.71383 126.236L7.71644 126.233L7.72315 126.226L7.74244 126.207L7.80435 126.144C7.85587 126.092 7.92779 126.02 8.01932 125.929C8.20234 125.748 8.464 125.491 8.79786 125.171C9.46506 124.532 10.4236 123.635 11.6217 122.576C14.1042 120.381 17.896 120.614 20.0909 123.097C20.1306 123.142 20.1695 123.187 20.2076 123.233C22.0813 121.767 24.1977 120.223 26.4724 118.75C26.4239 118.668 26.377 118.583 26.332 118.497C24.7953 115.561 25.9295 111.935 28.8654 110.399C30.4803 109.553 32.1607 108.764 33.8864 108.074C35.0535 107.606 36.1781 107.169 37.2586 106.76C40.3579 105.588 43.821 107.149 44.9938 110.249C45.0063 110.282 45.0186 110.315 45.0306 110.349C45.695 110.125 46.332 109.915 46.9408 109.719C46.9251 109.666 46.91 109.612 46.8957 109.558C46.357 107.525 46.9284 105.46 48.2362 104.005C48.2541 103.934 48.2733 103.864 48.2937 103.794C46.121 104.604 43.5795 104.109 41.8696 102.331C41.1533 101.586 40.4531 100.823 39.8143 100.07C39.1719 99.3131 38.5248 98.4886 37.8955 97.6487C36.3755 95.6201 36.3337 92.9427 37.5851 90.9068C35.2627 91.2852 32.8346 90.2693 31.5178 88.1447C31.0686 87.42 30.7022 86.8182 30.4466 86.395C30.3187 86.1833 30.2184 86.0159 30.149 85.8999L30.0687 85.7651L30.0467 85.7281L30.0404 85.7175L30.0385 85.7142L30.0378 85.7131L30.0375 85.7127L30.0374 85.7125C30.0373 85.7124 30.0373 85.7123 35.2004 82.6558M12 130.434L8.87002 135.553C7.31097 134.6 6.27134 132.988 6.04585 131.175C5.82036 129.361 6.4336 127.544 7.71171 126.238L12 130.434ZM35.2004 82.6558L30.0373 85.7123C29.0475 84.0403 28.9286 81.9924 29.7184 80.2171C30.5081 78.4418 32.1087 77.1588 34.0133 76.7744L35.2004 82.6558Z" stroke="#EDEDEE" stroke-width="12" stroke-linecap="round" stroke-linejoin="round" stroke-dasharray="12 24"/>
</svg>
