<svg width="441" height="132" viewBox="0 0 441 132" fill="none" xmlns="http://www.w3.org/2000/svg">
<path opacity="0.2" d="M391.906 53.1778C391.708 53.3202 391.521 53.4724 391.345 53.6333C388.405 51.0674 384.321 48.5131 378.649 46.3486C376.904 45.6826 375.009 45.0536 372.95 44.4724C370.942 43.9058 368.78 43.3847 366.449 42.9193L367.626 37.0359C367.626 37.0358 367.625 37.0356 367.624 37.0355C365.784 36.6673 363.766 36.3296 361.605 36.0183C358.325 35.5458 355.283 37.8216 354.811 41.1015C354.806 41.1357 354.801 41.1699 354.797 41.204C351.338 40.818 347.558 40.4733 343.535 40.1655C343.536 40.154 343.537 40.1425 343.537 40.1309C343.75 36.8241 341.242 33.9707 337.935 33.7576C334.158 33.5143 330.226 33.2989 326.194 33.1082C322.884 32.9517 320.073 35.5082 319.917 38.8182C319.917 38.8251 319.916 38.832 319.916 38.8389C316.204 38.6884 312.428 38.5568 308.626 38.4419C308.626 38.4374 308.626 38.4329 308.626 38.4285C308.711 35.1159 306.095 32.3615 302.782 32.2764C298.874 32.176 294.962 32.0919 291.091 32.0218C287.778 31.9618 285.043 34.599 284.983 37.9121C284.983 37.9156 284.983 37.919 284.983 37.9225C281.145 37.866 277.368 37.8225 273.696 37.7895C273.696 37.7868 273.696 37.784 273.696 37.7813C273.717 34.4676 271.047 31.7647 267.733 31.7442C263.638 31.7189 259.715 31.7059 256.032 31.7018C252.718 31.6981 250.029 34.3814 250.025 37.6951C250.025 37.6976 250.025 37.7001 250.025 37.7026C245.77 37.7085 241.952 37.7251 238.704 37.7452C238.704 37.7422 238.704 37.7392 238.704 37.7362C238.674 34.4226 235.963 31.761 232.649 31.7912C230.805 31.808 229.358 31.8239 228.372 31.8357C228.252 31.8371 228.138 31.8385 228.032 31.8398C227.892 31.7857 227.739 31.7269 227.574 31.6635C226.562 31.2745 225.083 30.7134 223.204 30.018C220.096 28.8681 216.645 30.4553 215.495 33.5631C215.49 33.5749 215.486 33.5867 215.482 33.5985C211.986 32.3533 207.813 30.909 203.14 29.369C203.143 29.3585 203.147 29.3479 203.15 29.3374C204.152 26.1789 202.405 22.8059 199.246 21.8035C195.43 20.5922 191.365 19.3488 187.127 18.1172C183.945 17.1925 180.616 19.0224 179.691 22.2045C179.687 22.2167 179.684 22.229 179.68 22.2412C175.575 21.1051 171.347 19.998 167.06 18.9571C167.064 18.9404 167.067 18.9236 167.071 18.9068C167.798 15.6739 165.767 12.4635 162.534 11.7362C158.384 10.8025 154.195 9.94139 150.022 9.18569C146.761 8.59516 143.639 10.7597 143.049 14.0204C143.045 14.0441 143.04 14.0678 143.036 14.0914C138.638 13.4063 134.301 12.8632 130.093 12.5023C130.095 12.4587 130.098 12.415 130.1 12.3712C130.243 9.06058 127.675 6.26075 124.364 6.1176C122.137 6.02131 119.943 5.98212 117.793 6.00758C116.056 6.02814 114.361 6.05866 112.707 6.09831C109.394 6.17773 106.773 8.92764 106.853 12.2404C106.853 12.2558 106.853 12.2713 106.854 12.2867C104.059 12.3975 101.4 12.535 98.8735 12.694C98.872 12.674 98.8705 12.6541 98.8688 12.6341C98.5956 9.33163 95.697 6.87596 92.3946 7.14916C88.6932 7.45537 85.3073 7.80607 82.2231 8.182C78.9338 8.58295 76.5922 11.5745 76.9932 14.8639C76.9965 14.8914 77.0001 14.9189 77.0038 14.9463C73.9828 15.4024 71.3631 15.8718 69.1221 16.3232C69.1092 16.2667 69.0955 16.2102 69.0809 16.1538C68.2519 12.9454 64.9789 11.0166 61.7706 11.8456C60.0259 12.2965 58.7184 12.6886 57.8175 12.9796C57.3671 13.1251 57.0184 13.2453 56.7677 13.3349C56.6423 13.3797 56.5414 13.4169 56.4645 13.4457C56.426 13.4601 56.3936 13.4725 56.367 13.4827L56.3317 13.4963L56.3174 13.5019L56.3111 13.5044L56.3081 13.5055L56.3067 13.5061C56.3061 13.5063 56.3054 13.5066 57.8942 17.5493L56.3053 13.5066C54.0096 14.4089 52.5 16.6242 52.5 19.0908V19.8092L51.9369 19.9612C48.7376 20.8245 46.8439 24.1178 47.7072 27.3171L39.2928 29.5877C38.4295 26.3884 35.1361 24.4947 31.9369 25.358L26.9369 26.7072C24.8691 27.2652 23.2556 28.883 22.7031 30.9522C22.242 32.6789 22.5782 34.5015 23.5822 35.9375C22.8752 37.5638 22.8928 39.4863 23.7964 41.1702L22.2055 42.0239C21.456 41.6873 20.6249 41.5 19.75 41.5H19.7361C17.9181 39.6134 15.0021 39.0799 12.5798 40.3797L9.16309 42.213C6.73957 43.5135 5.51055 46.2952 6.18099 48.9626C6.85143 51.63 9.24962 53.5 12 53.5H19.75C23.0637 53.5 25.75 50.8137 25.75 47.5H44.75C44.75 50.8137 47.4363 53.5 50.75 53.5H53.4755C52.8586 54.4428 52.5 55.5699 52.5 56.7806V58.6368C52.5 59.001 52.533 59.3601 52.5967 59.7108C52.2988 60.5696 52.1923 61.5093 52.3216 62.4717L44.4051 63.5351C44.4026 63.5291 44.4002 63.5231 44.3977 63.5171C43.9476 60.2428 40.9328 57.9477 37.6548 58.388L32.7012 59.0534C29.7395 59.4513 27.522 61.9679 27.5002 64.9561C27.4783 67.9443 29.6587 70.4931 32.6143 70.9343L37.9615 71.7324C41.2389 72.2215 44.2923 69.9612 44.7815 66.6838L54.3017 68.1047C54.2505 68.4475 54.2294 68.7878 54.2364 69.123C53.1418 70.2288 52.5 71.7381 52.5 73.3449V74.954C52.5 75.6725 52.6263 76.3615 52.8579 77H50.75C47.4363 77 44.75 79.6863 44.75 83L25.75 83C25.75 79.6863 23.0637 77 19.75 77H12C9.24963 77 6.85143 78.87 6.18099 81.5374C5.51056 84.2048 6.73957 86.9865 9.1631 88.287L12.5798 90.1203C15.0021 91.4201 17.9181 90.8867 19.7361 89H19.75C20.6249 89 21.456 88.8128 22.2055 88.4761L23.7964 89.3298C22.8928 91.0137 22.8752 92.9362 23.5822 94.5625C22.5782 95.9985 22.242 97.8211 22.7031 99.5478C23.2556 101.617 24.8691 103.235 26.9369 103.793L31.9369 105.142C35.1361 106.005 38.4295 104.112 39.2928 100.912L47.7072 103.183C46.8439 106.382 48.7376 109.676 51.9369 110.539L52.5903 110.715C52.531 111.054 52.5 111.402 52.5 111.758V112.891C52.5 115.355 54.0071 117.569 56.3001 118.473L58.3677 113.226C56.3001 118.473 56.3008 118.473 56.3015 118.474L56.3029 118.474L56.3059 118.475L56.3122 118.478L56.3266 118.483L56.3619 118.497C56.3884 118.507 56.4209 118.52 56.4594 118.534C56.5363 118.563 56.6373 118.6 56.7627 118.645C57.0136 118.735 57.3623 118.856 57.8128 119.002C58.7137 119.293 60.0212 119.687 61.7659 120.139C64.9737 120.97 68.2479 119.043 69.079 115.835C69.0937 115.779 69.1075 115.722 69.1204 115.666C71.3615 116.118 73.9814 116.589 77.0026 117.046C76.9989 117.074 76.9953 117.101 76.992 117.129C76.59 120.418 78.9306 123.41 82.2198 123.812C85.3043 124.189 88.6904 124.541 92.3921 124.848C95.6945 125.122 98.5936 122.667 98.8675 119.364C98.8691 119.344 98.8707 119.324 98.8722 119.304C101.399 119.464 104.059 119.601 106.854 119.713C106.853 119.728 106.853 119.743 106.852 119.759C106.773 123.072 109.394 125.822 112.707 125.901C114.361 125.941 116.056 125.972 117.793 125.992C119.943 126.018 122.137 125.978 124.364 125.882C127.675 125.739 130.243 122.939 130.1 119.628C130.098 119.585 130.095 119.541 130.093 119.497C134.301 119.136 138.638 118.593 143.036 117.908C143.04 117.932 143.045 117.956 143.049 117.979C143.639 121.24 146.761 123.405 150.022 122.814C154.195 122.058 158.384 121.197 162.534 120.263C165.767 119.536 167.798 116.326 167.071 113.093C167.067 113.076 167.064 113.059 167.06 113.043C171.347 112.002 175.575 110.895 179.68 109.758C179.684 109.771 179.687 109.783 179.691 109.795C180.616 112.977 183.945 114.807 187.127 113.882C191.365 112.651 195.43 111.407 199.246 110.196C202.405 109.194 204.152 105.821 203.15 102.662C203.147 102.652 203.143 102.641 203.14 102.631C207.813 101.091 211.986 99.6463 215.482 98.4012C215.486 98.413 215.49 98.4247 215.495 98.4365C216.645 101.544 220.096 103.132 223.204 101.982C225.083 101.286 226.562 100.725 227.574 100.336C227.739 100.273 227.892 100.214 228.032 100.16C228.139 100.161 228.253 100.162 228.373 100.164C229.359 100.175 230.806 100.191 232.65 100.208C235.964 100.237 238.674 97.5752 238.704 94.2616C238.704 94.2586 238.704 94.2556 238.704 94.2526C241.952 94.2723 245.77 94.2884 250.025 94.2937C250.025 94.2962 250.025 94.2987 250.025 94.3012C250.029 97.615 252.718 100.298 256.032 100.294C259.716 100.289 263.638 100.276 267.734 100.25C271.047 100.229 273.717 97.5261 273.696 94.2125C273.696 94.2097 273.696 94.207 273.696 94.2042C277.368 94.171 281.144 94.1271 284.983 94.0704C284.983 94.0738 284.983 94.0772 284.983 94.0807C285.043 97.3938 287.778 100.031 291.091 99.9706C294.962 99.9003 298.873 99.816 302.782 99.7155C306.095 99.6303 308.711 96.8758 308.626 93.5632C308.626 93.5587 308.626 93.5543 308.625 93.5499C312.427 93.4349 316.204 93.3032 319.915 93.1528C319.916 93.1597 319.916 93.1666 319.916 93.1734C320.073 96.4835 322.883 99.04 326.193 98.8836C330.225 98.6932 334.157 98.478 337.934 98.235C341.241 98.0223 343.749 95.1691 343.537 91.8622C343.536 91.8507 343.535 91.8393 343.534 91.8278C347.557 91.5206 351.337 91.1765 354.796 90.7914C354.801 90.8254 354.805 90.8595 354.81 90.8936C355.281 94.1736 358.323 96.4505 361.603 95.9792C363.764 95.6686 365.783 95.3316 367.623 94.9643L367.624 94.9641C370.09 94.4718 372.397 93.917 374.557 93.3082C377.746 92.409 379.603 89.0946 378.704 85.9052C378.68 85.8224 378.655 85.7404 378.629 85.6594C384.257 83.5148 388.324 80.9867 391.263 78.4435C391.437 78.6046 391.623 78.7572 391.819 78.9C394.501 80.8468 398.253 80.2511 400.2 77.5695C401.055 76.3915 401.757 75.2377 402.333 74.1328H403.291C406.604 74.1328 409.291 71.4465 409.291 68.1328H417.129C417.129 71.4465 419.815 74.1328 423.129 74.1328H428.089C431.403 74.1328 434.089 71.4465 434.089 68.1328V67.444C434.089 66.97 434.034 66.5088 433.93 66.0664C434.034 65.6241 434.089 65.1629 434.089 64.6888V64C434.089 60.6863 431.403 58 428.089 58H423.135C419.822 58 417.135 60.6863 417.135 64L409.321 64C409.321 60.6863 406.635 58 403.321 58H402.395C401.825 56.8935 401.13 55.7355 400.279 54.5515C398.346 51.8599 394.598 51.2449 391.906 53.1778Z" stroke="#EDEDEE" stroke-width="12" stroke-linecap="round" stroke-linejoin="round" stroke-dasharray="12 24"/>
</svg>
