<svg width="314" height="233" viewBox="0 0 314 233" fill="none" xmlns="http://www.w3.org/2000/svg">
<path opacity="0.2" d="M12 132.059C8.87243 137.18 8.87256 137.18 8.87271 137.18L8.87302 137.18L8.87374 137.181L8.87557 137.182L8.88077 137.185L8.89728 137.195L8.95437 137.23C9.00298 137.259 9.07253 137.301 9.16184 137.355C9.34043 137.462 9.59824 137.616 9.92594 137.81C10.581 138.197 11.5173 138.742 12.6599 139.388C15.5451 141.017 19.2052 139.999 20.8349 137.114C20.8524 137.083 20.8695 137.052 20.8864 137.021C22.238 137.721 23.6727 138.438 25.1371 139.13C26.96 139.991 28.829 140.814 30.6413 141.518C32.0068 142.049 33.3402 142.512 34.5973 142.873L32.9326 148.638C32.9336 148.638 32.9345 148.638 32.9355 148.639C34.32 149.038 35.7982 149.443 37.3147 149.842C40.5191 150.686 43.8011 148.773 44.6452 145.568C44.6503 145.549 44.6552 145.53 44.6601 145.51C46.5367 145.968 48.393 146.407 50.1352 146.811C50.1331 146.82 50.131 146.83 50.1289 146.839C49.648 149.009 50.4082 151.165 51.9372 152.566C50.9248 153.112 50.0584 153.955 49.4826 155.05C49.1331 155.714 48.7936 156.384 48.4642 157.059L48.4023 157.185L48.3464 157.315C48.036 158.035 47.756 158.765 47.5066 159.505C46.9488 161.159 47.1532 162.887 47.9308 164.306C46.7436 165.406 46.0023 166.98 46.0073 168.725C46.0096 169.506 46.0437 170.288 46.1102 171.069L46.4275 174.798L49.9161 176.153C50.8423 176.513 51.6498 176.551 51.8185 176.559L51.8337 176.56C52.1287 176.575 52.3732 176.567 52.5134 176.56C52.8042 176.546 53.0701 176.516 53.2545 176.493C53.6452 176.444 54.0914 176.37 54.5471 176.286C55.4785 176.115 56.707 175.856 58.1377 175.516C61.3618 174.751 63.3551 171.517 62.5897 168.292C62.5774 168.24 62.5643 168.188 62.5506 168.137C64.6517 167.522 66.9297 166.794 69.2474 165.958C69.2735 166.024 69.3009 166.089 69.3295 166.154C70.6615 169.188 74.2011 170.568 77.2353 169.236C78.815 168.543 80.3878 167.793 81.9106 166.985C83.5628 166.119 85.1368 165.155 86.6241 164.138C89.3593 162.267 90.0602 158.533 88.1896 155.798C88.1221 155.7 88.0522 155.603 87.98 155.51C89.921 153.829 91.6771 152.09 93.2099 150.441C93.2683 150.491 93.328 150.541 93.3888 150.589C95.2264 152.049 97.6556 152.257 99.6489 151.333V162.267C96.3352 162.267 93.6489 164.953 93.6489 168.267V174.702V180.702H99.6489H105.498C108.812 180.702 111.498 178.015 111.498 174.702H121.33C120.601 176.804 121.076 179.231 122.754 180.911L118.135 185.525C115.793 183.181 111.994 183.178 109.65 185.52L108.732 186.437H101.005C97.6911 186.437 95.0048 189.123 95.0048 192.437H88.076C88.076 189.123 85.3897 186.437 82.076 186.437H77.3438H71.3438V192.437V197.132C71.3438 200.446 74.0301 203.132 77.3438 203.132V209.914C74.0301 209.914 71.3438 212.601 71.3438 215.914V220.61V226.61H77.3438H82.076C85.3897 226.61 88.076 223.924 88.076 220.61H95.0048C95.0048 223.924 97.6911 226.61 101.005 226.61H110.469C113.783 226.61 116.469 223.924 116.469 220.61H123.398C123.398 223.924 126.084 226.61 129.398 226.61H134.13C136.442 226.61 138.673 226.458 140.813 226.183C144.1 225.761 146.422 222.755 146 219.468C145.983 219.338 145.962 219.209 145.937 219.082C150.141 217.97 153.785 216.366 156.733 214.65C156.846 214.81 156.967 214.966 157.098 215.118C159.261 217.628 163.05 217.909 165.56 215.746C166.921 214.573 168.133 213.322 169.061 212.051C169.785 211.058 171.104 209.044 171.104 206.53C171.104 204.014 169.783 202 169.057 201.007C168.128 199.736 166.915 198.486 165.554 197.315C163.042 195.153 159.254 195.437 157.092 197.949C156.962 198.1 156.841 198.256 156.728 198.416C156.254 198.141 155.762 197.868 155.252 197.599L158.151 194.703C160.496 192.361 160.498 188.562 158.156 186.218L162.775 181.604C165.117 183.949 168.916 183.951 171.26 181.609L172.169 180.702H175.836V180.407C175.975 180.402 176.114 180.397 176.253 180.392C179.564 180.276 182.154 177.496 182.038 174.185C182.037 174.155 182.035 174.126 182.034 174.097C186.338 173.819 190.591 173.406 194.786 172.866C194.79 172.896 194.795 172.926 194.799 172.956C195.322 176.228 198.399 178.457 201.671 177.933C205.923 177.254 210.114 176.445 214.235 175.512C217.467 174.781 219.494 171.568 218.763 168.336C218.756 168.305 218.749 168.274 218.741 168.243C222.92 167.158 227.017 165.94 231.024 164.596C231.035 164.627 231.047 164.659 231.058 164.69C232.217 167.795 235.673 169.373 238.777 168.215C242.828 166.703 246.783 165.064 250.635 163.304C253.649 161.926 254.975 158.367 253.598 155.353C253.583 155.32 253.568 155.288 253.552 155.255C257.418 153.318 261.161 151.251 264.77 149.064C264.791 149.097 264.812 149.131 264.834 149.164C266.662 151.928 270.384 152.687 273.148 150.859C276.781 148.457 280.274 145.928 283.613 143.282C286.211 141.224 286.648 137.45 284.59 134.853C284.562 134.818 284.535 134.785 284.507 134.751C287.777 131.918 290.867 128.963 293.765 125.897C293.802 125.93 293.839 125.963 293.878 125.996C296.396 128.149 300.184 127.853 302.337 125.335C303.756 123.674 305.125 121.985 306.441 120.267L309.237 116.618L306.441 112.969C305.116 111.239 303.737 109.537 302.307 107.866C300.153 105.348 296.366 105.053 293.848 107.207C293.81 107.24 293.772 107.273 293.735 107.306C290.797 104.199 287.661 101.206 284.341 98.3383C284.369 98.3048 284.396 98.2709 284.423 98.2367C286.477 95.6365 286.035 91.8633 283.435 89.8092C280.067 87.1491 276.546 84.6089 272.882 82.1964C270.115 80.374 266.394 81.1402 264.571 83.9078C264.55 83.9409 264.528 83.9741 264.507 84.0075C260.845 81.7973 257.045 79.7111 253.12 77.7573C253.135 77.7251 253.15 77.6927 253.165 77.6601C254.534 74.6425 253.198 71.0863 250.181 69.7171C246.297 67.955 242.308 66.316 238.224 64.8069C235.116 63.6583 231.665 65.2469 230.517 68.3551C230.505 68.3866 230.494 68.4182 230.483 68.4498C226.417 67.0999 222.258 65.8793 218.017 64.795C218.024 64.7644 218.031 64.7336 218.038 64.7028C218.757 61.468 216.718 58.2629 213.483 57.544C209.329 56.6207 205.105 55.823 200.82 55.1565C197.546 54.6472 194.479 56.8887 193.969 60.163C193.965 60.193 193.96 60.2231 193.956 60.2531C189.701 59.7227 185.387 59.3246 181.022 59.0643C181.024 59.0351 181.025 59.0059 181.026 58.9766C181.126 55.6644 178.522 52.8981 175.21 52.7979C174.285 52.7699 173.359 52.748 172.431 52.7321L171.256 51.5587C168.912 49.2169 165.113 49.219 162.771 51.5635L158.152 46.9496C160.493 44.6052 160.491 40.8062 158.147 38.4643L154.891 35.2124C155.533 34.8822 156.149 34.5445 156.737 34.2025C156.85 34.363 156.972 34.5195 157.103 34.6714C159.267 37.1808 163.056 37.4609 165.565 35.2968C166.925 34.1241 168.137 32.8727 169.064 31.5995C169.791 30.602 171.104 28.5896 171.104 26.0795C171.104 23.5658 169.788 21.5527 169.059 20.5553C168.13 19.2828 166.916 18.033 165.555 16.8623C163.043 14.7016 159.255 14.9866 157.094 17.499C156.963 17.6508 156.842 17.8072 156.729 17.9677C153.781 16.2564 150.137 14.6552 145.935 13.5431C145.959 13.4169 145.98 13.2891 145.997 13.1597C146.423 9.87356 144.105 6.86403 140.819 6.43776C138.681 6.16049 136.453 6.00523 134.144 6H134.13H129.398C126.084 6 123.398 8.68629 123.398 12H116.469C116.469 8.68629 113.783 6 110.469 6H101.005C97.6911 6 95.0048 8.68629 95.0048 12H88.076C88.076 8.68629 85.3897 6 82.076 6H77.3438H71.3438V12V16.6955C71.3438 20.0093 74.0301 22.6955 77.3438 22.6955V29.4778C74.0301 29.4778 71.3438 32.164 71.3438 35.4778V40.1733V46.1733H77.3438H82.076C85.3897 46.1733 88.076 43.487 88.076 40.1733H95.0048C95.0048 43.487 97.6911 46.1733 101.005 46.1733H108.17L109.645 47.6472C111.99 49.989 115.789 49.9868 118.13 47.6423L122.75 52.2562C122.217 52.7898 121.805 53.3988 121.515 54.0487C120.043 55.1422 119.09 56.8936 119.09 58.8677H110.737C110.737 55.554 108.051 52.8677 104.737 52.8677H99.6489H93.6489V58.8677V65.303C93.6489 68.6167 96.3352 71.303 99.6489 71.303V82.5976C98.0166 82.2727 96.258 82.6246 94.8317 83.7147C94.6961 83.8184 94.566 83.9267 94.4417 84.0393C94.3237 83.9253 94.2034 83.81 94.0806 83.6934C94.1299 83.6367 94.1783 83.5789 94.2258 83.52C96.3062 80.9407 95.9018 77.1633 93.3225 75.083C92.5089 74.4267 91.6429 73.75 90.7211 73.0533C89.4726 72.094 88.196 71.1753 86.8932 70.2981C84.1445 68.4474 80.4159 69.1754 78.5652 71.9241C78.5166 71.9962 78.4698 72.069 78.4248 72.1424C76.8336 71.2606 75.2082 70.4416 73.5525 69.6874C73.5847 69.6076 73.6154 69.5267 73.6444 69.4449C74.7525 66.3219 73.1191 62.892 69.9962 61.7839C68.508 61.2559 67.0019 60.7741 65.4797 60.3396L58.9824 58.4847L57.9088 65.1557C57.8016 65.8218 57.7123 66.49 57.6408 67.1596C57.4824 68.6425 57.8786 70.0568 58.6625 71.196C57.8786 72.3351 57.4824 73.7495 57.6408 75.2323C57.7102 75.8826 57.7965 76.5316 57.8996 77.1785C57.9896 77.81 58.0953 78.4386 58.2165 79.0639C58.2457 79.2144 58.2803 79.3625 58.32 79.5081C57.5793 79.0704 56.7323 78.7859 55.8186 78.7021C55.0674 78.6332 54.2969 78.5634 53.5129 78.4934C52.3083 78.3858 51.073 78.3439 49.8562 78.3454C46.5425 78.3495 43.8595 81.039 43.8635 84.3527C43.8637 84.4582 43.8665 84.5631 43.872 84.6672C43.7111 84.6827 43.551 84.6985 43.3917 84.7147C43.3845 84.6602 43.3765 84.6055 43.3677 84.5508C42.8436 81.2788 39.7663 79.0512 36.4943 79.5752C35.5088 79.7331 34.6975 79.8759 34.1267 79.9804C33.8411 80.0327 33.615 80.0755 33.4568 80.106C33.3776 80.1212 33.3154 80.1334 33.271 80.1421L33.2181 80.1526L33.2019 80.1558L33.1964 80.1569L33.1944 80.1573L33.1935 80.1575L33.1931 80.1576C33.1929 80.1576 33.1927 80.1577 34.3751 86.04L33.1927 80.1577L24.9221 81.8201L29.2065 89.0872C29.673 89.8785 30.1478 90.6647 30.6308 91.4456C31.8685 93.4466 34.0915 94.4663 36.2854 94.2654C35.2889 96.2302 35.4159 98.6726 36.8187 100.562C37.3662 101.299 37.9216 102.03 38.4848 102.756L38.6494 102.968L38.8324 103.165C39.4502 103.828 40.0753 104.485 40.7075 105.135C42.2735 106.744 44.5224 107.287 46.5486 106.75C45.4166 108.173 44.9421 110.09 45.4303 111.986C45.4433 112.037 45.4569 112.087 45.4711 112.137C44.991 112.288 44.5119 112.441 44.0338 112.598C44.0164 112.55 43.9982 112.501 43.9794 112.452C42.7839 109.362 39.3093 107.825 36.2188 109.021C35.1287 109.443 34.0445 109.88 32.9666 110.333C31.3147 111 29.7056 111.76 28.1586 112.573C25.225 114.113 24.0959 117.741 25.6367 120.674C25.6829 120.763 25.7311 120.849 25.781 120.934C23.728 122.272 21.8097 123.668 20.0952 125C20.0565 124.954 20.0169 124.907 19.9765 124.862C17.7865 122.375 13.9952 122.134 11.5083 124.324C10.3507 125.343 9.42367 126.206 8.77805 126.821C8.45499 127.129 8.20163 127.376 8.02431 127.551C7.93562 127.638 7.86589 127.708 7.81588 127.758L7.75576 127.818L7.73696 127.837L7.73041 127.844L7.72785 127.846L7.72675 127.848L7.72625 127.848C7.72601 127.848 7.72577 127.849 12 132.059ZM12 132.059L8.87243 137.18L2.41734 133.237L7.72577 127.849L12 132.059Z" stroke="#EDEDEE" stroke-width="12" stroke-linecap="round" stroke-linejoin="round" stroke-dasharray="12 24"/>
</svg>
