<svg width="301" height="208" viewBox="0 0 301 208" fill="none" xmlns="http://www.w3.org/2000/svg">
<path opacity="0.2" d="M14 120.677C10.87 125.796 10.8702 125.796 10.8703 125.796L10.8706 125.796L10.8713 125.796L10.8732 125.798L10.8785 125.801L10.8954 125.811L10.9543 125.847C11.0045 125.877 11.0763 125.921 11.1687 125.976C11.3533 126.088 11.6201 126.247 11.9593 126.448C12.6372 126.849 13.6067 127.414 14.7898 128.083C17.6741 129.714 21.3348 128.699 22.9661 125.814C22.9828 125.785 22.9993 125.755 23.0156 125.725C24.5357 126.516 26.1615 127.331 27.8212 128.112C27.7915 128.181 27.7629 128.251 27.7354 128.321C26.5326 131.409 28.0606 134.887 31.1483 136.09C32.6852 136.689 34.2424 137.234 35.7607 137.672C37.196 138.087 38.7286 138.507 40.3013 138.921C43.5055 139.766 46.788 137.854 47.633 134.65C47.6379 134.631 47.6428 134.612 47.6476 134.593C49.7467 135.107 51.8254 135.599 53.7621 136.047C53.7601 136.056 53.758 136.065 53.756 136.074C53.2487 138.363 54.1218 140.636 55.8214 142.024C54.6783 142.561 53.695 143.463 53.0638 144.668C52.7031 145.357 52.3528 146.051 52.013 146.751L51.9545 146.872L51.9014 146.995C51.5818 147.736 51.2933 148.488 51.0364 149.249C50.4578 150.964 50.6983 152.758 51.5474 154.205C50.2824 155.308 49.4845 156.933 49.4883 158.742C49.49 159.546 49.5245 160.351 49.5922 161.155L49.9011 164.824L53.3128 166.21C54.2583 166.595 55.0873 166.64 55.2627 166.649L55.2781 166.65C55.5826 166.668 55.835 166.66 55.9799 166.654C56.2803 166.64 56.5551 166.61 56.7456 166.586C57.1493 166.536 57.6108 166.46 58.0822 166.373C59.0456 166.196 60.3173 165.926 61.7988 165.573C65.0223 164.804 67.0125 161.568 66.2443 158.345C66.2323 158.295 66.2196 158.245 66.2064 158.195C68.5066 157.524 71.0198 156.721 73.5767 155.792C73.6016 155.855 73.6277 155.917 73.6548 155.979C74.9842 159.014 78.5225 160.397 81.5579 159.068C83.1945 158.351 84.8237 157.577 86.4014 156.744L86.4073 156.741C88.111 155.84 89.7351 154.838 91.2705 153.78C93.9993 151.9 94.6875 148.164 92.8075 145.435C92.7424 145.341 92.675 145.249 92.6055 145.159C94.7389 143.315 96.6611 141.4 98.3239 139.596C98.3798 139.644 98.4368 139.691 98.4948 139.737C99.2948 140.371 100.207 140.769 101.146 140.94L101.146 153.159C97.8322 153.159 95.1459 155.845 95.1459 159.159V164.713L93.5599 167.668C91.9927 170.588 93.0891 174.225 96.0088 175.792L90.8794 185.348C87.9597 183.781 84.3224 184.877 82.7552 187.797L80.054 192.829L75.3102 201.667H85.3405H91.8875C95.2012 201.667 97.8875 198.981 97.8875 195.667H112.076C112.076 198.981 114.762 201.667 118.076 201.667L131.17 201.667C134.483 201.667 137.17 198.981 137.17 195.667H151.358C151.358 198.981 154.044 201.667 157.358 201.667H163.905H167.494L169.191 198.505L171.892 193.472C173.459 190.553 172.363 186.915 169.443 185.348L174.573 175.792C177.493 177.359 181.13 176.263 182.697 173.343L185.398 168.311L186.591 166.089H195.405C195.405 169.369 198.036 172.034 201.303 172.088V172.138L207.335 172.105C209.327 172.094 211.286 171.946 213.209 171.672C216.489 171.205 218.77 168.167 218.303 164.887C218.281 164.731 218.253 164.578 218.22 164.427C220.855 163.627 223.406 162.56 225.865 161.275C225.922 161.37 225.982 161.464 226.045 161.556C227.905 164.299 231.636 165.014 234.378 163.154C237.442 161.076 240.321 158.727 243.009 156.204C245.425 153.937 245.546 150.14 243.278 147.723C243.224 147.666 243.169 147.61 243.114 147.555C244.985 145.507 246.753 143.367 248.412 141.175C248.46 141.209 248.509 141.243 248.559 141.276C251.317 143.114 255.042 142.368 256.879 139.611C258.922 136.546 260.762 133.448 262.387 130.41C263.95 127.488 262.848 123.852 259.926 122.289C259.874 122.261 259.822 122.234 259.769 122.208C261.01 119.513 262.051 116.925 262.877 114.526C262.995 114.56 263.115 114.591 263.237 114.618C266.471 115.338 269.677 113.299 270.397 110.065C270.72 108.614 270.964 107.179 271.093 105.807L275.728 105.807C275.728 109.121 278.414 111.807 281.728 111.807H288.16H294.16V105.807V105.118C294.16 104.644 294.105 104.183 294.001 103.74C294.105 103.298 294.16 102.837 294.16 102.363V101.674V95.674H288.16H281.728C278.414 95.674 275.728 98.3603 275.728 101.674H271.091C270.962 100.306 270.719 98.8762 270.397 97.4306C269.677 94.196 266.471 92.1575 263.237 92.8774C263.115 92.9045 262.995 92.935 262.877 92.969C262.05 90.5694 261.009 87.9796 259.768 85.2827C259.82 85.2566 259.872 85.2296 259.924 85.2019C262.846 83.6393 263.948 80.0037 262.386 77.0816C260.761 74.0421 258.921 70.9437 256.878 67.8782C255.041 65.1205 251.316 64.3742 248.558 66.2115C248.509 66.2445 248.46 66.2782 248.412 66.3124C246.752 64.1193 244.983 61.9771 243.112 59.9277C243.167 59.8728 243.222 59.8167 243.276 59.7593C245.544 57.3437 245.425 53.5466 243.01 51.2782C240.323 48.7548 237.444 46.4043 234.381 44.3245C231.639 42.4629 227.908 43.1761 226.046 45.9175C225.984 46.0101 225.924 46.1038 225.867 46.1986C223.407 44.9105 220.856 43.8418 218.22 43.0385C218.253 42.8879 218.281 42.735 218.303 42.5798C218.773 39.2995 216.495 36.2594 213.215 35.7894C211.292 35.5139 209.333 35.3637 207.341 35.351L207.322 35.3509H207.303L201.405 35.3509C198.091 35.3509 195.405 38.0372 195.405 41.3509L185.734 41.3509L184.659 39.3475L181.958 34.3166C180.39 31.3971 176.753 30.3011 173.833 31.8686L168.705 22.3172C171.624 20.7497 172.72 17.1122 171.153 14.1927L168.452 9.16177L166.754 6.00002L163.165 6.00002L156.618 6.00002C153.305 6.00001 150.618 8.68631 150.618 12L136.43 12C136.43 8.6863 133.744 6.00001 130.43 6.00001L117.336 6.00001C114.023 6.00001 111.336 8.6863 111.336 12L97.1484 12C97.1484 8.68629 94.4622 6 91.1484 6L84.6014 6L74.5698 6L79.3152 14.8382L82.0164 19.8692C83.5839 22.7887 87.2214 23.8847 90.1409 22.3172L95.2691 31.8686C92.3496 33.4361 91.2536 37.0735 92.8211 39.993L95.1459 44.323V48.2808C95.1459 51.5945 97.8322 54.2808 101.146 54.2808L101.146 70.0004C100.391 70.0004 99.6677 70.14 99.0019 70.3948C98.9841 70.3779 98.9662 70.361 98.9483 70.3441C98.9947 70.2908 99.0403 70.2365 99.0851 70.1812C101.172 67.607 100.776 63.8286 98.202 61.742C97.3609 61.0602 96.4655 60.3567 95.5124 59.6321C94.2192 58.6372 92.8967 57.6845 91.547 56.775C88.7989 54.9233 85.0701 55.6499 83.2183 58.398C83.1714 58.4676 83.1262 58.5378 83.0826 58.6087C81.3047 57.6157 79.4855 56.6987 77.6298 55.8602C77.6608 55.7831 77.6903 55.7049 77.7184 55.6258C78.8259 52.5026 77.192 49.073 74.0689 47.9654C72.5293 47.4194 70.971 46.9214 69.3962 46.4724L62.8958 44.6189L61.8265 51.2933C61.7167 51.9788 61.6252 52.6665 61.5519 53.3557C61.3888 54.8904 61.8194 56.3513 62.6591 57.5097C61.8194 58.6681 61.3888 60.129 61.5519 61.6637C61.6233 62.3356 61.7121 63.006 61.8183 63.6744C61.9121 64.3274 62.0219 64.9774 62.1476 65.624C62.2189 65.9908 62.3222 66.3434 62.4541 66.6792C61.5981 66.0406 60.5609 65.6226 59.4196 65.5178C58.6414 65.4463 57.8424 65.3738 57.0282 65.3012C55.7876 65.1905 54.516 65.1464 53.2618 65.1468C49.9481 65.1478 47.2626 67.8349 47.2636 71.1486C47.2636 71.2511 47.2662 71.353 47.2713 71.4542C46.9547 71.4837 46.6407 71.5146 46.33 71.5467C46.3229 71.4935 46.3151 71.4403 46.3065 71.387C45.782 68.115 42.7044 65.8878 39.4325 66.4123C38.4111 66.576 37.5707 66.7242 36.9796 66.8328C36.6838 66.8871 36.4498 66.9315 36.2861 66.9632C36.2042 66.979 36.1399 66.9916 36.0941 67.0007L36.0394 67.0115L36.0227 67.0149L36.0171 67.016L36.015 67.0164L36.0141 67.0166L36.0137 67.0167C36.0135 67.0167 36.0133 67.0168 37.2004 72.8982M14 120.677C9.71171 116.48 9.71195 116.48 9.71219 116.48L9.71271 116.479L9.71383 116.478L9.71644 116.475L9.72315 116.469L9.74244 116.449L9.80435 116.386C9.85587 116.335 9.92779 116.262 10.0193 116.172C10.2023 115.99 10.464 115.734 10.7979 115.414C11.4651 114.774 12.4236 113.878 13.6216 112.818C16.1042 110.624 19.896 110.857 22.0909 113.339C22.1306 113.384 22.1695 113.43 22.2076 113.475C24.0813 112.009 26.1977 110.465 28.4724 108.993C28.4239 108.91 28.377 108.825 28.332 108.739C26.7953 105.804 27.9295 102.178 30.8654 100.641C32.4803 99.7958 34.1607 99.0067 35.8864 98.316C37.0535 97.8489 38.1781 97.4117 39.2586 97.0028C42.3579 95.8301 45.821 97.3918 46.9938 100.491C47.0063 100.524 47.0186 100.558 47.0306 100.591C47.695 100.367 48.332 100.157 48.9408 99.9615C48.9251 99.9081 48.91 99.8543 48.8957 99.8001C48.357 97.7678 48.9284 95.7025 50.2363 94.2474C50.2541 94.1768 50.2733 94.1064 50.2937 94.0363C48.121 94.8465 45.5795 94.3511 43.8696 92.5734C43.1533 91.8287 42.4531 91.0658 41.8143 90.3127C41.1719 89.5555 40.5248 88.731 39.8955 87.8911C38.3755 85.8625 38.3337 83.1851 39.5851 81.1492C37.2627 81.5276 34.8346 80.5117 33.5178 78.387C33.0686 77.6624 32.7022 77.0606 32.4466 76.6374C32.3187 76.4256 32.2184 76.2583 32.149 76.1423L32.0687 76.0075L32.0467 75.9705L32.0404 75.9599L32.0385 75.9566L32.0378 75.9555L32.0375 75.9551L32.0374 75.9549C32.0374 75.9548 32.0373 75.9547 37.2004 72.8982M14 120.677L10.87 125.796L4.44202 121.865L9.71171 116.48L14 120.677ZM37.2004 72.8982L32.0373 75.9547L27.7352 68.6876L36.0133 67.0168L37.2004 72.8982Z" stroke="#EDEDEE" stroke-width="12" stroke-linecap="round" stroke-linejoin="round" stroke-dasharray="12 24"/>
</svg>
