<svg width="109" height="111" viewBox="0 0 109 111" fill="none" xmlns="http://www.w3.org/2000/svg">
<circle cx="54.5" cy="57" r="54" fill="#5F7564"/>
<path d="M46.6593 89.904C47.7153 89.52 48.0033 88.464 48.3873 87.504L49.3473 85.776L50.2113 84.144C50.9793 82.896 51.2673 82.224 51.7473 81.168C52.1313 80.4 52.2273 79.728 52.4193 79.344C53.1873 78.096 54.0513 76.368 54.8193 75.024C55.1073 74.352 55.4913 73.584 55.7793 73.104C56.0673 72.624 56.3553 71.952 56.4513 71.76C57.1233 70.416 59.0433 67.152 59.5233 66.192C60.1953 64.848 60.6753 63.6 61.3473 62.352C61.6353 61.68 61.9233 61.104 62.3073 60.432C62.5953 59.856 62.9793 59.184 63.2673 58.416C63.8433 57.168 64.5153 56.016 65.0913 54.576C65.5713 53.616 66.5313 51.696 66.8193 50.64C67.2993 49.296 67.9713 48.048 68.4513 46.704C69.4113 44.688 70.0833 42.48 70.7553 40.368C71.5233 38.352 72.4833 36.24 73.1553 34.032C73.2513 33.456 73.5393 32.784 73.7313 32.112C74.5953 30.576 75.1713 28.368 75.7473 26.928L76.0353 26.16C76.3233 24.72 77.4753 24.336 77.2833 22.896C77.2833 22.608 77.1873 22.416 77.0913 22.224C76.8993 21.648 76.6113 21.264 76.0353 21.072C75.0753 20.88 71.4273 21.168 70.2753 21.168H64.0353C61.5393 21.072 59.2353 21.36 57.2193 21.264C55.2993 21.072 53.4753 21.264 51.6513 21.264C49.9233 21.264 48.3873 21.36 46.9473 21.264C45.7953 21.264 44.5473 21.36 43.6833 21.264C41.5713 21.168 39.2673 20.88 37.2513 20.976C36.5793 21.072 35.9073 21.072 35.2353 21.072C34.2753 21.168 33.4113 21.168 32.6433 21.168C31.6833 21.168 30.9153 20.976 30.5312 22.512C30.3392 24.144 31.9713 24.432 33.0273 24.432C33.6992 24.432 34.6593 24.432 35.5233 24.336C36.4833 24.24 37.1553 24.24 37.1553 24.24H37.8273C38.9793 24.24 40.3233 24.24 41.3793 24.336C42.9153 24.432 44.1633 24.336 45.5073 24.432C47.6193 24.528 50.0193 24.528 52.2273 24.528C53.5713 24.528 55.0113 24.432 56.3553 24.432C58.5633 24.432 60.7713 24.528 62.9793 24.528H64.0353C64.8993 24.624 64.9953 24.528 65.4753 24.528C66.5313 24.528 67.4913 24.624 68.3553 24.624H73.0593C72.8673 25.008 72.7713 25.2 72.6753 25.488C72.0993 26.352 71.8113 27.984 71.6193 28.56C71.0433 29.904 70.4673 31.152 69.9873 32.88C69.5073 34.224 69.0273 35.76 68.5473 37.2C67.9713 38.544 67.2993 39.984 66.9153 41.52C66.5313 42.672 66.0513 43.728 65.7633 44.688C65.4753 45.264 65.0913 46.032 64.8033 46.704C64.7073 47.088 64.3233 47.664 64.1313 48.24C63.1713 50.256 62.4993 52.176 61.6353 53.904C59.6193 58.032 57.8913 61.968 55.7793 65.808C55.2032 66.768 54.7233 67.728 54.2433 68.688C53.6673 69.648 53.1873 70.704 52.6113 71.76C51.7473 73.296 50.9793 74.832 50.1153 76.464C49.3473 78 48.6753 79.152 48.0033 80.88C46.9473 82.896 45.9873 84.336 44.9313 86.16C44.7393 86.448 44.1633 87.024 44.1633 88.272C44.1633 89.328 44.9313 90 45.9873 90C46.1793 90 46.4673 90 46.6593 89.904Z" fill="#EDEDEE"/>
</svg>
