<svg width="407" height="174" viewBox="0 0 407 174" fill="none" xmlns="http://www.w3.org/2000/svg">
<g clip-path="url(#clip0_1916_22421)">
<path d="M192.265 31.7505C192.265 31.7505 167.477 21.3752 145.129 17.0888C132.642 14.5681 119.96 13.1291 107.225 12.7876L133.879 59.0134L192.265 31.7505Z" fill="#A7A9AC"/>
<path d="M192.265 142.211C192.265 142.211 167.477 152.586 145.129 156.872C132.642 159.393 119.96 160.832 107.225 161.174L133.879 114.948L192.265 142.211Z" fill="#A7A9AC"/>
<path d="M133.727 59.5738L84.8165 49.123L99.8415 71.4181L43.7745 87.2912L99.8415 103.149L84.8165 125.444L133.727 114.993L133.727 59.5738Z" fill="#C7AC5E"/>
<path d="M133.818 110.677L105.663 113.691L113.835 99.9533L80.9503 87.7001L112.759 76.3254L103.511 59.5739L133.606 63.4513L133.818 110.677Z" fill="#B18340"/>
<mask id="mask0_1916_22421" style="mask-type:alpha" maskUnits="userSpaceOnUse" x="335" y="29" width="12" height="116">
<path d="M346.238 143.71L346.238 30.3718L335.929 30.3718L335.928 143.71L346.238 143.71Z" fill="#EDEDEE" stroke="#A7A9AC" stroke-miterlimit="10"/>
</mask>
<g mask="url(#mask0_1916_22421)">
<path d="M133.955 115.054C163.974 136.773 204.698 150.117 249.561 150.117C311.434 150.117 365.47 124.732 394.368 87.0032C365.47 49.2743 311.434 23.8896 249.561 23.8896C204.698 23.8896 163.974 37.2483 133.955 58.9527L133.955 115.054Z" fill="#EDEDEE"/>
</g>
<path d="M133.955 115.054C163.974 136.773 204.698 150.117 249.561 150.117C311.434 150.117 365.47 124.732 394.368 87.0033C365.47 49.2745 311.434 23.8898 249.561 23.8898C204.698 23.8898 163.974 37.2484 133.955 58.9528L133.955 115.054Z" fill="#A5BED7"/>
<path d="M211.687 86.8974C211.687 108.73 229.404 126.429 251.259 126.429C273.113 126.429 290.83 108.73 290.83 86.8974C290.83 65.0648 273.113 47.3661 251.259 47.3661C229.404 47.3661 211.687 65.0648 211.687 86.8974Z" fill="#EDEDEE"/>
<path d="M261.85 114.198C262.774 114.264 263.83 113.604 263.896 112.086C263.764 110.964 263.038 110.568 262.246 110.238C261.454 110.106 260.992 110.304 260.662 110.304C259.012 110.304 257.692 110.37 256.636 110.37C256.108 110.37 255.58 110.37 255.184 110.304C254.59 110.238 252.94 110.172 252.874 110.172C252.412 110.172 252.016 110.172 251.686 110.106H250.366C250.3 110.106 248.98 110.04 247.99 110.04H245.482C245.944 109.446 246.472 108.918 246.472 108.852C247 108.39 247.594 107.862 247.99 107.268C248.452 106.74 249.046 106.146 249.706 105.42L250.432 104.628C250.696 104.43 251.092 104.1 251.422 103.572L252.94 101.79C253.336 101.262 254.788 99.744 255.316 98.886C255.382 98.688 255.58 98.49 255.844 98.094C256.57 97.368 256.966 96.51 257.428 95.916C257.494 95.652 257.89 94.992 258.154 94.596L258.682 93.804L259.936 91.89C260.53 91.032 260.728 90.174 261.058 89.514C262.312 87.336 263.632 84.762 264.028 81.858C264.16 81.066 264.49 79.944 264.49 78.69C264.49 78.228 264.556 77.37 264.556 76.578V75.324C264.49 74.862 264.358 74.466 264.358 73.938C264.358 73.542 264.16 73.014 264.16 72.75C264.16 72.288 263.896 71.496 263.5 70.968C263.368 70.902 263.17 70.308 262.84 69.714C262.576 69.318 262.444 68.988 261.982 68.46C261.652 68.064 261.322 67.734 260.926 67.404C260.464 67.008 259.804 66.546 259.012 66.282C258.484 66.084 258.088 65.886 257.494 65.688C256.042 65.226 253.798 65.094 252.346 65.094C251.554 65.094 250.63 65.226 250.168 65.292C249.706 65.424 249.046 65.424 248.254 65.556C247 65.886 245.68 66.216 244.624 66.876C243.898 67.206 242.974 67.8 242.38 68.658L241.852 69.516C241.522 69.846 241.126 70.572 241.126 71.43C241.126 71.76 241.192 72.09 241.324 72.42C241.852 73.146 242.578 73.674 243.502 73.476C244.162 73.212 244.624 72.882 244.888 72.156C245.152 71.496 247.264 70.242 247.924 69.78C249.244 69.318 250.96 68.922 253.072 68.922C253.336 68.922 253.6 68.922 253.864 68.988C254.062 68.988 254.194 68.988 254.458 69.054C254.92 69.054 255.778 69.252 256.372 69.384C256.372 69.45 256.702 69.516 257.032 69.648C257.362 69.714 257.824 70.11 258.352 70.506C258.55 70.704 259.342 71.826 259.738 72.222C260.134 72.816 260.068 73.146 260.266 73.674C260.596 74.664 260.596 75.39 260.662 75.852C260.728 76.974 260.596 78.36 260.596 79.482C260.596 80.406 259.672 83.706 259.276 84.432C258.946 85.092 258.616 85.95 258.352 86.544C258.154 87.072 258.022 87.402 257.758 87.732L257.032 89.052L255.712 91.23C255.382 91.824 255.25 92.154 254.524 93.342L253.402 94.86C252.742 95.586 252.412 96.18 252.082 96.708C251.818 97.038 251.224 97.5 250.762 98.226L249.838 99.612L248.254 101.394C247.264 102.45 246.34 103.506 245.548 104.43C244.756 105.288 241.456 108.324 240.928 108.852C240.994 108.852 240.73 108.984 240.334 109.314C240.07 109.644 238.486 110.964 238.486 111.822C238.42 113.142 239.344 114.198 240.73 114.198C241.192 114.198 241.654 114.066 241.984 114C243.106 113.934 246.868 113.868 247.726 113.868C249.376 113.802 250.828 113.802 252.412 113.802H253.336C254.194 113.802 255.316 114.066 256.438 114C257.362 113.934 259.012 114.132 260.266 114.132C260.53 114.198 260.86 114.264 261.256 114.264C261.454 114.264 261.652 114.264 261.85 114.198Z" fill="#6B6C6F"/>
</g>
<defs>
<clipPath id="clip0_1916_22421">
<rect width="149.916" height="354.126" fill="white" transform="translate(395.125 12) rotate(90)"/>
</clipPath>
</defs>
</svg>
