<svg width="314" height="233" viewBox="0 0 314 233" fill="none" xmlns="http://www.w3.org/2000/svg">
<path fill-rule="evenodd" clip-rule="evenodd" d="M170.188 174.521C226.53 174.221 275.65 151.012 302 116.618C275.656 82.2275 226.55 59.0136 170.241 58.7038L131.287 19.7942L110.93 40.1284L129.69 58.8676L99.9706 58.8676L99.9706 174.702L129.292 174.702L110.934 193.039L131.292 213.373L170.007 174.702L170.157 174.702L170.157 174.551L170.188 174.521Z" fill="#90BFBE"/>
<path d="M134.452 40.1597C152.903 40.1597 165.426 29.2763 165.426 26.0795C165.426 22.8828 152.903 12.0417 134.452 12L77.6655 12L77.6654 40.1733L134.452 40.1733L134.452 40.1597Z" fill="#739A99"/>
<path d="M134.452 220.61C152.903 220.61 165.426 209.713 165.426 206.53C165.426 203.347 152.903 192.478 134.452 192.437L77.6655 192.437L77.6654 220.61L134.452 220.61Z" fill="#739A99"/>
<path d="M100.305 142.011C100.305 142.011 91.6081 155.299 79.4327 161.678C68.3008 167.585 52.9112 170.755 52.4102 170.56C52.0943 166.847 52.7014 163.114 54.1774 159.691C55.9964 155.966 58.1482 152.412 60.6062 149.072C60.6062 149.072 44.8819 145.75 34.9189 142.873C25.6795 140.219 12.3217 132.059 12.3217 132.059C12.3217 132.059 23.4534 120.76 35.5732 115.882C41.8032 113.259 48.2522 111.189 54.8453 109.696C50.846 106.413 47.0711 102.865 43.5464 99.0772C40.3225 94.9234 37.3668 90.569 34.6967 86.0401C34.6967 86.0401 45.8287 83.8025 53.301 84.4697C60.7732 85.1368 67.0344 85.7897 67.0344 85.7897C65.5907 82.7874 64.6194 79.581 64.1542 76.283C63.6119 72.9132 63.6119 69.4789 64.1542 66.1091C72.5759 68.5134 80.4654 72.4886 87.4058 77.8256C98.5376 86.2345 100.472 91.1131 100.472 91.1131L100.305 142.011Z" fill="#C7AC5E"/>
<path d="M100.305 142.011C100.305 142.011 90.7872 147.752 82.5914 149.072C78.7142 149.81 74.7899 150.274 70.8474 150.462C70.8474 150.462 73.2824 141.83 75.7175 138.286C78.1526 134.742 80.6013 131.434 80.6013 131.434C80.6013 131.434 71.0698 133.867 63.3192 132.532C56.8407 131.152 50.4736 129.293 44.27 126.973C44.27 126.973 55.7913 114.143 63.9871 111.266C72.1829 108.389 74.1732 108.39 74.1732 108.39C71.2398 107.072 68.5456 105.278 66.2 103.08C62.8744 99.7585 60.6341 92.2387 60.6341 92.2387C60.6341 92.2387 75.0358 87.3742 85.2214 88.4722C90.3896 88.9303 95.5098 89.8229 100.528 91.1407L100.305 142.011Z" fill="#B18340"/>
<path d="M144.846 116.618C144.846 141.297 164.875 161.303 189.582 161.303C214.289 161.303 234.318 141.297 234.318 116.618C234.318 91.9389 214.289 71.9326 189.582 71.9326C164.875 71.9326 144.846 91.9389 144.846 116.618Z" fill="#739A99"/>
<path d="M152.695 116.791C152.695 137.502 169.261 154.291 189.695 154.291C210.13 154.291 226.695 137.502 226.695 116.791C226.695 96.0806 210.13 79.2913 189.695 79.2913C169.261 79.2913 152.695 96.0806 152.695 116.791Z" fill="#EDEDEE" stroke="#EDEDEE" stroke-linecap="round" stroke-linejoin="round"/>
<path d="M188.596 142.687C189.058 142.687 189.52 142.687 189.916 142.621C190.246 142.621 190.708 142.687 191.236 142.621C192.292 142.555 193.084 142.225 193.81 142.093C194.206 141.961 194.734 141.697 195.064 141.499L196.318 140.971C196.648 140.839 199.816 138.199 200.278 137.605C200.674 137.011 201.268 136.219 201.532 135.295C201.796 134.965 201.862 134.569 201.928 134.107C202.06 133.843 202.588 132.325 202.72 131.203C202.786 130.543 202.852 129.619 202.852 129.025C202.786 128.761 202.852 128.431 202.852 127.771C202.852 127.243 202.72 126.583 202.588 126.121C202.39 125.329 202.258 124.537 201.796 123.679C201.598 122.953 201.136 122.161 200.674 121.369C200.146 120.445 199.618 119.917 199.288 119.521L198.76 119.059C198.1 118.531 197.902 118.333 197.704 118.135C198.43 117.607 199.222 116.881 199.684 116.221C200.542 115.231 200.872 114.175 201.334 113.185C201.532 112.723 201.796 111.997 201.994 111.403C202.192 110.809 202.324 110.281 202.456 109.621C202.654 108.763 202.72 107.839 202.72 106.915C202.72 105.925 202.654 105.001 202.522 104.143C202.456 103.813 202.522 103.549 202.39 103.219C202.39 102.889 202.258 102.427 202.126 102.163L201.928 101.701C201.796 101.305 201.664 101.107 201.598 100.975C201.466 100.579 201.07 99.9193 200.938 99.5893C200.674 99.0613 199.75 97.6093 199.354 97.3453C198.364 96.7513 197.572 96.1573 196.648 95.5633C195.592 94.8373 192.556 93.7813 191.698 93.7813C190.972 93.7813 190.114 93.5833 188.992 93.5833C188.2 93.5833 186.88 93.5833 185.758 94.1113C185.23 94.3753 184.834 94.5073 184.57 94.6393C182.92 95.1673 180.874 96.7513 179.818 98.2033C179.422 98.8633 179.224 99.4573 179.026 99.7213C178.762 100.117 178.168 100.777 178.168 101.701C178.168 102.031 178.234 102.295 178.366 102.625C178.762 103.153 179.422 103.483 180.082 103.483C180.742 103.483 181.336 103.219 181.732 102.625L181.996 102.229C181.93 102.163 181.996 102.163 182.26 101.767C182.986 100.909 183.184 100.315 183.58 99.9193C184.042 99.4573 184.306 99.1273 184.636 98.9293C185.362 98.5333 186.154 98.2033 187.012 97.9393C187.936 97.6093 188.794 97.3453 189.784 97.4113C190.048 97.4113 190.378 97.5433 190.906 97.6753C191.5 97.7413 191.83 97.8073 192.226 97.8733C193.084 98.0713 193.612 98.0713 194.074 98.4013L194.602 98.5993C194.932 98.8633 195.328 99.1933 195.79 99.4573C196.054 99.7213 196.45 99.9853 196.318 99.8533C196.582 100.051 196.846 100.315 196.912 100.381C196.912 100.513 197.374 101.239 197.572 101.437L197.968 101.899C198.43 102.889 198.826 104.011 198.826 105.793C198.826 106.585 198.826 107.179 198.76 107.773C198.694 109.093 198.364 110.281 197.968 111.403C197.704 112.459 197.374 112.921 196.582 113.779C196.252 114.175 195.592 114.637 194.998 115.099C194.866 115.297 193.876 115.957 193.876 115.957L193.084 116.485C192.754 116.617 192.358 116.683 191.962 117.079C191.698 117.475 191.434 118.069 191.434 118.663V118.927C191.764 119.719 192.226 120.445 193.15 120.643C193.678 120.709 193.942 120.709 194.074 120.775C194.536 120.907 195.064 121.105 195.526 121.369C196.846 122.557 197.902 123.877 198.562 125.593C198.76 126.649 199.024 127.639 199.024 128.563C199.024 129.817 198.826 131.137 198.562 132.193C198.298 133.513 198.034 134.371 197.506 135.031C197.176 135.625 196.648 136.219 196.054 136.681C195.064 137.341 194.206 138.001 193.084 138.331C192.754 138.397 192.49 138.595 191.962 138.661C190.906 138.925 190.246 138.991 189.19 138.925L187.54 138.859C186.616 138.793 184.108 137.803 182.656 136.285C182.326 135.757 181.402 134.899 181.336 134.701C181.138 134.437 180.874 133.843 180.412 133.381C179.554 132.589 179.026 131.467 178.168 131.467C177.772 131.467 177.376 131.665 176.782 132.259C176.65 132.391 176.584 132.655 176.584 132.985C176.584 133.711 176.848 134.767 177.046 135.163C177.244 135.625 177.508 135.955 177.706 136.219C177.97 136.615 178.3 137.407 178.894 138.133C179.554 138.991 180.478 139.717 181.402 140.245C181.996 140.575 182.392 140.707 182.59 140.905C183.052 141.169 183.58 141.433 184.174 141.631C185.362 142.159 186.88 142.687 188.596 142.687Z" fill="#6B6C6F"/>
</svg>
